<svg
   xmlns="http://www.w3.org/2000/svg"
   xmlns:xlink="http://www.w3.org/1999/xlink"
   version="1.1"
   id="svg444"
   width="260"
   height="260"
   viewBox="0 0 100 100"
   preserveAspectRatio="none">
   
  <defs
     id="defs448">
    <filter
       style="color-interpolation-filters:sRGB;"
       id="filter522">
      <feConvolveMatrix
         in="SourceGraphic"
         kernelMatrix="0 1 0 1 -4 1 0 1 0"
         order="3 3"
         bias="0"
         divisor="0.0892767"
         targetX="1"
         targetY="1"
         preserveAlpha="true"
         result="convolve"
         id="feConvolveMatrix520" />
    </filter>
  </defs>
  <g
     id="g452">
    <g
       id="g524">
      <path
         style="fill:#b9b9b9;fill-opacity:1;stroke-width:0.384615"
         d="m 28.076923,89.230769 c -0.317308,-0.205061 -0.403846,-0.372834 -0.192308,-0.372834 0.211539,0 0.644231,0.167773 0.961539,0.372834 0.317308,0.205062 0.403846,0.372835 0.192308,0.372835 -0.211539,0 -0.644231,-0.167773 -0.961539,-0.372835 z m 4.807692,-0.769231 c -0.130738,-0.211538 0.04234,-0.384615 0.384616,-0.384615 0.342276,0 0.515353,0.173077 0.384615,0.384615 -0.130738,0.211539 -0.303815,0.384616 -0.384615,0.384616 -0.0808,0 -0.253878,-0.173077 -0.384616,-0.384616 z m 9.740193,-0.50993 c -0.143096,-0.701854 -0.08949,-0.954754 0.15133,-0.713931 0.205108,0.205108 0.304827,0.694192 0.221597,1.086854 -0.112085,0.528777 -0.2088,0.432061 -0.372927,-0.372923 z m 6.11878,0.462204 c 0.2609,-0.262854 0.571247,-0.381027 0.689666,-0.262608 0.118419,0.118419 -0.09504,0.333481 -0.474358,0.477915 -0.548154,0.208723 -0.592331,0.164546 -0.215308,-0.215307 z m 9.333335,0.281184 c 0,-0.08314 0.268604,-0.254231 0.5969,-0.380211 0.342277,-0.131343 0.496662,-0.06687 0.361915,0.151157 -0.225869,0.365466 -0.958815,0.540558 -0.958815,0.229054 z m 6.153846,-0.210758 c 0,-0.199053 0.171096,-0.467661 0.380212,-0.5969 0.218023,-0.134746 0.2825,0.01965 0.151157,0.361916 -0.255688,0.666315 -0.531369,0.788227 -0.531369,0.234984 z m -25.4235,-1.676123 c 0.179127,-0.179127 0.910196,-0.2655 1.624593,-0.191934 1.26693,0.130457 1.258915,0.138477 -0.325685,0.325684 -0.893527,0.105566 -1.478035,0.04538 -1.298908,-0.13375 z m 22.346577,0.354362 c 0,-0.07986 0.302885,-0.38275 0.673077,-0.673077 0.610023,-0.478412 0.623627,-0.464808 0.145215,0.145215 -0.50245,0.640673 -0.818292,0.844416 -0.818292,0.527862 z M 43.151904,84.807692 c 0.0078,-0.634615 0.09404,-0.847669 0.191554,-0.47345 0.09752,0.37422 0.0911,0.89345 -0.01423,1.153846 -0.105358,0.260397 -0.185142,-0.04578 -0.177304,-0.680396 z m 5.309634,0.810381 c 0,-0.364858 1.1513,-0.548738 1.356535,-0.216661 0.125031,0.2023 -0.129042,0.367819 -0.564604,0.367819 -0.435561,0 -0.791931,-0.06802 -0.791931,-0.151158 z m 5.101443,-0.124835 c 0.584638,-0.08841 1.450023,-0.08604 1.923077,0.0052 0.473054,0.09129 -0.0053,0.163623 -1.062981,0.160739 -1.057692,-0.0031 -1.444735,-0.07759 -0.860096,-0.165989 z m 0.667788,-1.409919 c 0,-0.0811 0.346393,-0.238031 0.769762,-0.348746 0.423369,-0.110711 0.672769,-0.04436 0.554223,0.14745 -0.207019,0.334965 -1.323985,0.504785 -1.323985,0.201296 z M 46.568827,82.46795 c 0.01846,-0.448058 0.109592,-0.539192 0.232369,-0.232373 0.111104,0.277642 0.09744,0.609373 -0.03035,0.737181 -0.127808,0.127804 -0.218708,-0.09936 -0.202008,-0.504808 z M 41.26385,80.192308 c 0.0031,-1.057693 0.07758,-1.444735 0.165988,-0.860096 0.08841,0.584638 0.08604,1.450023 -0.0052,1.923076 -0.09129,0.473054 -0.163623,-0.0053 -0.160739,-1.06298 z m 1.458823,0.73718 c 0.01846,-0.448057 0.109592,-0.539192 0.232369,-0.232373 0.111104,0.277643 0.09744,0.609373 -0.03035,0.737181 -0.127808,0.127804 -0.218708,-0.09936 -0.202008,-0.504808 z m -3.644592,-3.942307 c -0.10895,-0.176285 0.0463,-0.320516 0.344996,-0.320516 0.298696,0 0.453946,0.144231 0.344996,0.320516 -0.108946,0.176281 -0.264196,0.320511 -0.344996,0.320511 -0.0808,0 -0.23605,-0.14423 -0.344996,-0.320511 z M 32.115385,75.384615 C 32.246123,75.173077 32.429414,75 32.522699,75 c 0.09328,0 0.169609,0.173077 0.169609,0.384615 0,0.211539 -0.183292,0.384616 -0.407315,0.384616 -0.224022,0 -0.300346,-0.173077 -0.169608,-0.384616 z m 17.5,0.02269 c 0,-0.199054 0.171096,-0.467662 0.380211,-0.5969 0.218023,-0.134746 0.2825,0.01965 0.151158,0.361915 -0.255689,0.666323 -0.531369,0.788235 -0.531369,0.234992 z M 39.832419,74.88725 c 0.144435,-0.379315 0.359496,-0.592777 0.477916,-0.474358 0.118419,0.11842 2.46e-4,0.428766 -0.262608,0.689666 -0.379854,0.377023 -0.424031,0.332846 -0.215308,-0.215308 z m -3.212968,-0.502973 c -0.272763,-0.295965 -0.326247,-0.538123 -0.118853,-0.538123 0.399401,0 0.977588,0.731619 0.749454,0.948334 -0.07407,0.07036 -0.357837,-0.11423 -0.630601,-0.410203 z m 15.254564,-0.05735 c -0.478411,-0.610023 -0.464807,-0.623627 0.145216,-0.145215 0.370192,0.290327 0.673077,0.593211 0.673077,0.673077 0,0.316553 -0.315843,0.112811 -0.818293,-0.527862 z m -11.104784,-0.09615 c 0,-0.211538 0.173077,-0.384615 0.384615,-0.384615 0.211539,0 0.384616,0.173077 0.384616,0.384615 0,0.211539 -0.173077,0.384616 -0.384616,0.384616 -0.211538,0 -0.384615,-0.173077 -0.384615,-0.384616 z M 52.311208,73.658081 C 52.049796,73.343104 51.725719,73.148369 51.591035,73.225338 51.45635,73.302308 51,73.226108 50.576923,73.055827 c -0.687388,-0.276531 -0.663042,-0.312331 0.22885,-0.336485 0.548946,-0.01488 1.311346,0.31912 1.694227,0.742196 0.382881,0.423077 0.603973,0.769231 0.491319,0.769231 -0.112654,0 -0.418704,-0.257711 -0.680111,-0.572688 z m -9.666623,-0.286323 c 0.455096,-0.588073 0.386277,-0.717812 -0.58355,-1.100073 -0.604723,-0.238354 -1.618727,-0.402739 -2.253343,-0.3653 -0.634615,0.03742 -1.463225,0.06678 -1.841355,0.0652 -0.592434,-0.0023 -0.56584,0.09858 0.192308,0.730746 0.483897,0.403492 0.66347,0.739377 0.399047,0.746415 -0.264423,0.007 -0.480769,-0.132238 -0.480769,-0.3095 0,-0.177261 -0.607415,-0.34513 -1.349812,-0.373042 -0.742396,-0.02792 -1.667804,-0.220927 -2.056463,-0.428931 -0.425391,-0.227665 -0.846195,-0.238646 -1.057249,-0.02758 -0.211054,0.211054 -0.578944,0.18945 -0.924306,-0.05428 -0.46145,-0.325658 -0.423191,-0.35997 0.195522,-0.17535 0.763718,0.227888 0.763797,0.22533 0.01104,-0.35682 -0.417007,-0.322496 -0.986059,-0.498915 -1.264559,-0.392042 -0.458704,0.176019 -0.609675,-0.05112 -1.082371,-1.628442 -0.115947,-0.3869 -0.450999,-0.368996 -1.597718,0.08536 -1.342669,0.532 -1.386392,0.529154 -0.585619,-0.03811 0.956612,-0.677685 1.174342,-2.057696 0.32465,-2.057696 -0.436857,0 -0.456216,-0.1791 -0.100771,-0.932281 0.27731,-0.587615 0.538936,-0.772146 0.707666,-0.499135 0.147235,0.238235 0.164834,0.614489 0.03911,0.836127 -0.128484,0.226504 -0.07526,0.262643 0.121532,0.08253 0.192569,-0.17625 0.364588,-1.30125 0.382264,-2.5 0.04019,-2.725496 0.868643,-6.685569 1.337954,-6.395519 0.193526,0.119604 0.248792,-0.05114 0.122814,-0.379435 -0.125979,-0.328296 -0.05736,-0.5969 0.152478,-0.5969 0.470278,0 1.411843,-1.401711 1.808492,-2.692307 l 0.295516,-0.961539 -1.012885,0.935785 c -0.703293,0.649761 -0.939662,1.166496 -0.773322,1.690584 0.20943,0.659858 0.164872,0.687289 -0.354251,0.218062 -0.525302,-0.474812 -0.28083,-0.853892 2.118883,-3.285589 1.706012,-1.728746 2.605981,-2.921519 2.425132,-3.214138 -0.220028,-0.356012 -0.375125,-0.342735 -0.660385,0.05654 -0.283974,0.397473 -0.321222,0.361431 -0.156302,-0.151246 0.124007,-0.385492 0.02078,-0.673077 -0.241605,-0.673077 -0.251968,0 -0.03019,-0.301538 0.49284,-0.670088 0.52303,-0.36855 1.110069,-0.6184 1.30453,-0.555223 0.194462,0.06318 0.13,-0.154512 -0.143248,-0.483758 -0.273248,-0.329242 -1.016045,-0.598623 -1.65066,-0.598623 -0.963485,0 -1.077611,0.09186 -0.691755,0.556785 0.282963,0.34095 0.3347,0.784419 0.133466,1.144003 -0.27791,0.4966 -0.410845,0.455193 -0.861403,-0.268323 -0.487018,-0.782061 -0.477919,-0.810204 0.105936,-0.32768 0.359583,0.297176 0.638713,0.353207 0.638713,0.128207 0,-0.219811 -0.216346,-0.475123 -0.480769,-0.567361 -0.628849,-0.219354 -1.48792,0.103254 -1.25943,0.472957 0.09815,0.158816 -0.248996,0.207039 -0.77144,0.10717 -1.086903,-0.207777 -1.28633,-0.847631 -0.276822,-0.888177 0.570591,-0.02292 0.55595,-0.07349 -0.09615,-0.332116 -0.468071,-0.185642 -0.87986,-0.137415 -1.051803,0.123185 -0.20523,0.31105 -0.284184,0.307731 -0.288461,-0.01212 -0.0032,-0.24222 0.414531,-0.845043 0.928379,-1.339604 0.694654,-0.668581 0.828667,-1.026446 0.522522,-1.395327 -0.314841,-0.379362 -0.263163,-0.439108 0.219577,-0.253862 0.347228,0.133231 0.631324,0.407023 0.631324,0.608416 0,0.201388 0.216346,0.256223 0.48077,0.121853 0.264423,-0.134369 0.09135,0.0995 -0.384616,0.51972 -0.475961,0.420219 -0.865384,0.866096 -0.865384,0.990842 0,0.463285 1.078921,0.207596 1.274484,-0.302035 0.111616,-0.290865 0.669047,-0.528846 1.238737,-0.528846 0.56969,0 1.167183,-0.212581 1.327761,-0.472404 0.222675,-0.360292 0.486116,-0.368492 1.110104,-0.03454 0.44998,0.240815 0.818144,0.599408 0.818144,0.796865 0,0.197458 0.259616,0.259389 0.576923,0.137627 0.701027,-0.269011 0.754577,0.284831 0.09615,0.994443 -0.392462,0.422973 -0.357139,0.474642 0.192308,0.2813 0.993161,-0.349474 0.824338,0.123253 -0.550634,1.541865 -1.371241,1.414761 -1.197019,2.260296 0.196069,0.951558 0.49082,-0.4611 1.037119,-0.706977 1.213992,-0.546389 0.176877,0.160589 0.211388,0.09877 0.07669,-0.137384 -0.404881,-0.709847 1.068419,-1.7386 2.196842,-1.533977 0.590524,0.10708 0.922208,0.03058 0.790608,-0.182366 -0.124696,-0.201761 -0.431108,-0.244254 -0.680915,-0.09443 -0.258746,0.155189 -0.227043,-0.0076 0.07367,-0.378342 0.571469,-0.704512 1.012904,-0.892188 0.625985,-0.266138 -0.275131,0.445173 0.220519,0.497238 1.190423,0.12505 0.628307,-0.241104 0.623707,-0.281697 -0.0647,-0.570816 -0.418758,-0.175869 0.717988,-0.238623 2.613453,-0.144273 1.900162,0.09458 3.452477,0.0085 3.580393,-0.198415 0.301304,-0.48752 2.773804,-0.469877 2.937415,0.02096 0.07083,0.212493 1.162662,0.465689 2.426292,0.562658 1.962273,0.150585 2.425185,0.05636 3.1725,-0.6457 1.009893,-0.948746 1.120089,-1.665415 0.304216,-1.978496 -0.313927,-0.120466 -2.807808,-0.13005 -5.541958,-0.02131 -3.269761,0.13005 -5.056742,0.05929 -5.221158,-0.206738 -0.137484,-0.222454 -0.604427,-0.404462 -1.037653,-0.404462 -0.560247,0 -0.720274,-0.175665 -0.554224,-0.608381 0.128404,-0.334607 0.233458,-0.680761 0.233458,-0.76923 0,-0.08847 0.259616,-0.16085 0.576923,-0.16085 0.475904,0 0.576923,-0.701635 0.576923,-4.007005 0,-4.52596 0.164743,-5.274516 1.089523,-4.950564 0.522143,0.182907 0.55195,0.128391 0.160477,-0.293516 -0.48053,-0.517891 -0.704523,-2.254722 -0.229523,-1.77972 0.138185,0.138185 0.648723,-0.287501 1.134523,-0.94597 0.640112,-0.867619 0.828608,-1.527982 0.684689,-2.398682 -0.168593,-1.019994 -0.131389,-1.095595 0.246334,-0.500529 0.244708,0.385515 0.33947,1.121092 0.210585,1.634615 -0.392627,1.564349 0.128865,1.046563 1.093319,-1.085553 0.546935,-1.209103 0.896866,-1.672033 0.872196,-1.153846 -0.02265,0.475962 -0.17745,0.865385 -0.343969,0.865385 -0.166523,0 -0.289104,0.302885 -0.272404,0.673077 0.01815,0.402091 0.108466,0.479516 0.224358,0.192308 0.106696,-0.264424 0.409942,-0.48077 0.673873,-0.48077 0.263935,0 0.713219,-0.435994 0.998408,-0.968877 0.354857,-0.663057 0.608923,-0.822615 0.804911,-0.5055 0.220054,0.356057 0.412712,0.35853 0.83185,0.01068 0.300012,-0.248986 0.658296,-0.339879 0.796189,-0.201986 0.137892,0.137894 0.605377,-0.07025 1.038854,-0.462542 0.621327,-0.562294 0.738915,-0.584974 0.555561,-0.107158 -0.137154,0.357414 0.144323,1.012789 0.686019,1.59729 0.870435,0.939215 0.955331,0.956723 1.618931,0.333875 0.633516,-0.59461 0.630704,-0.560063 -0.0295,0.36214 -0.577915,0.807262 -0.794784,0.905647 -1.041923,0.47268 -0.596838,-1.045615 -0.912535,-0.15984 -0.867992,2.435402 0.03855,2.246231 0.137527,2.595138 0.708604,2.49791 0.425477,-0.07244 0.66168,0.134689 0.657907,0.576923 -0.005,0.58614 -0.06198,0.603142 -0.378723,0.113012 -0.309257,-0.478543 -0.374846,-0.44575 -0.384615,0.192308 -0.0096,0.624707 -0.079,0.662931 -0.369592,0.203446 -0.62985,-0.995938 -0.956466,-0.04297 -1.025639,2.99252 -0.07341,3.221369 0.273854,4.118365 2.232377,5.766357 0.716238,0.602673 1.035281,1.168273 0.899796,1.59515 -0.149527,0.471116 0.175335,0.868862 1.129219,1.382562 1.762554,0.9492 3.110397,2.7058 2.311416,3.012396 -0.309204,0.118654 -0.562193,0.389961 -0.562193,0.6029 0,0.257408 0.333077,0.260535 0.993816,0.0093 1.200177,-0.456308 1.915384,-0.135581 1.313877,0.589192 -0.29185,0.351658 -0.297612,0.585296 -0.01869,0.757688 0.221812,0.137085 0.410066,0.02269 0.418347,-0.254219 0.0083,-0.276908 0.26123,0.06305 0.562115,0.755473 0.300885,0.692416 0.596996,2.707454 0.658023,4.477866 0.06899,2.001261 0.256454,3.138365 0.495577,3.005961 0.211538,-0.117127 -0.01739,0.2289 -0.508688,0.76895 -0.781462,0.858977 -1.0811,1.542973 -1.192654,2.722519 -0.01619,0.171139 -0.18437,0.2154 -0.373743,0.09836 -0.33835,-0.209112 -0.99023,0.852208 -0.870592,1.4174 0.03358,0.158654 -0.460492,0.288461 -1.097946,0.288461 h -1.159008 l 0.582085,-1.393123 c 0.660742,-1.581327 0.756869,-2.83763 0.217138,-2.83763 -0.200727,0 -0.671923,0.973796 -1.0471,2.163996 l -0.682138,2.163992 -2.598316,-0.217831 c -2.661034,-0.223092 -4.027838,0.31885 -1.885015,0.747412 l 1.165754,0.233154 -0.609723,1.204638 c -0.843185,1.665896 -1.678858,2.551473 -2.403496,2.547035 -0.337404,-0.0019 -1.518004,-0.424889 -2.62355,-0.939608 -1.10555,-0.514715 -2.10772,-0.777881 -2.227046,-0.584804 -0.119327,0.193073 0.374661,0.598239 1.09775,0.900362 0.723088,0.302127 1.432588,0.740057 1.576665,0.973181 0.144077,0.233119 0.7229,0.423857 1.286269,0.423857 h 1.024308 l -0.800289,0.800289 c -0.773184,0.773184 -0.869488,0.779738 -2.843384,0.193557 -1.1237,-0.333703 -2.461281,-0.880742 -2.972396,-1.215638 -1.068943,-0.700396 -1.587377,-0.45925 -0.870277,0.404804 C 48.484512,69.914192 48.404865,70 47.5251,70 c -1.556296,0 -4.448177,0.808996 -4.448177,1.244365 0,0.2139 0.3831,0.275816 0.865385,0.139862 2.963561,-0.835431 9.451792,-0.670131 8.897534,0.226681 -0.16228,0.262573 -1.128688,0.317873 -2.714957,0.155357 -1.946173,-0.199392 -2.586616,-0.128711 -3.052177,0.33685 -0.4549,0.4549 -0.47335,0.600731 -0.08095,0.639823 0.279534,0.02785 -0.09753,0.166704 -0.837912,0.30857 -0.740384,0.141865 -1.565746,0.0952 -1.834138,-0.103712 -0.32872,-0.243619 -0.7659,-0.124654 -1.339523,0.364508 -0.68862,0.587219 -0.752827,0.598596 -0.3356,0.05945 z m 14.278492,-6.833296 c 0,-0.211539 -0.173077,-0.384616 -0.384615,-0.384616 -0.211539,0 -0.384616,0.173077 -0.384616,0.384616 0,0.211538 0.173077,0.384615 0.384616,0.384615 0.211538,0 0.384615,-0.173077 0.384615,-0.384615 z m -10.384615,-6.125 c 0,-0.501566 -0.93032,-1.182693 -1.615385,-1.182693 -0.647965,0 -0.9494,0.76855 -0.483973,1.233973 0.300761,0.300766 2.099358,0.256831 2.099358,-0.05128 z M 48.461538,60 C 48.100177,59.324792 48.169042,59.230769 49.024931,59.230769 49.63525,59.230769 50,59.014954 50,58.653846 c 0,-0.317308 0.183292,-0.576923 0.407315,-0.576923 0.224023,0 0.314931,-0.149477 0.202023,-0.332169 -0.255688,-0.413708 -3.301646,-0.443277 -3.301646,-0.03205 0,0.165065 0.216346,0.387415 0.48077,0.494111 0.264423,0.106697 0.09135,0.207658 -0.384616,0.224358 -1.081077,0.03792 -1.086788,0.322039 -0.02912,1.447885 1.027388,1.093604 1.644084,1.16223 1.086804,0.120942 z m -2.315407,-4.047758 c -0.267585,-0.322419 -0.565723,-0.507011 -0.662531,-0.410204 -0.266727,0.266731 0.275212,0.996424 0.740038,0.996424 0.255039,0 0.225858,-0.220685 -0.07751,-0.58622 z m 6.135373,-0.530846 c 0.895338,-1.257388 0.974704,-1.575242 0.393323,-1.575242 -0.640865,0 -2.355635,1.890677 -2.095912,2.310915 0.39497,0.639073 0.869766,0.433919 1.702589,-0.735673 z m -6.585992,-1.219473 c -0.0758,-0.227404 -0.2633,-0.400481 -0.416666,-0.384615 -0.153365,0.01585 -1.230769,0.02885 -2.394231,0.02885 -1.163461,0 -2.115384,0.173077 -2.115384,0.384615 0,0.217462 1.100427,0.384616 2.53205,0.384616 1.634865,0 2.483219,-0.146504 2.394231,-0.413462 z m 21.059807,-2.125658 c -0.127331,-0.50733 -0.407381,-0.922419 -0.622334,-0.922419 -0.262154,0 -0.259743,0.244916 0.0073,0.743946 0.218981,0.40917 0.421715,1.231285 0.450523,1.826923 0.04667,0.964989 0.0711,0.984435 0.224184,0.178473 0.0945,-0.497476 0.06763,-1.319592 -0.0597,-1.826923 z m -12.106423,0.495708 c -0.704969,-0.704969 -0.471092,-1.033511 0.735719,-1.033511 1.682747,0 1.415327,-0.76005 -0.288461,-0.819862 l -1.442308,-0.05063 1.265135,-0.237831 c 1.367681,-0.257107 1.703969,-0.92015 0.582104,-1.147707 -0.381366,-0.07736 -0.806427,-0.320046 -0.944581,-0.539312 -0.24955,-0.396069 -7.669958,0.227123 -8.450831,0.709731 -0.975011,0.602588 0.434642,0.848888 3.801692,0.664242 3.427854,-0.18798 3.681062,-0.155061 2.97725,0.387081 -0.759146,0.584765 -0.754596,0.607854 0.347316,1.761273 0.614104,0.642808 1.278223,1.068823 1.475823,0.946696 0.214096,-0.132319 0.190315,-0.390996 -0.05886,-0.640169 z M 37.336802,48.569331 c 0.512836,-0.575331 0.647762,-0.828873 0.299836,-0.563427 -0.347925,0.265442 -0.856877,0.433281 -1.131003,0.372977 -0.274127,-0.06031 -0.564651,0.193234 -0.64561,0.563427 -0.214681,0.981654 0.409902,0.823907 1.476777,-0.372977 z m 9.97089,-6.046631 c 0,-0.405954 -0.738119,-0.576504 -0.957661,-0.221281 -0.132869,0.214989 0.02823,0.390889 0.358038,0.390889 0.329793,0 0.599623,-0.07632 0.599623,-0.169608 z M 48.225385,36.25 c 0.16603,-2.072902 0.117677,-3.173077 -0.139462,-3.173077 -0.238131,0 -0.393615,1.316714 -0.393615,3.333334 0,1.833333 0.06276,3.261216 0.139461,3.173078 0.0767,-0.08814 0.253831,-1.588143 0.393616,-3.333335 z m 7.15923,-4.442308 c 0,-0.738689 -0.785619,-1.392645 -1.393023,-1.159564 -0.661515,0.253848 -0.692784,1.145183 -0.04928,1.404841 0.881046,0.355511 1.442307,0.260063 1.442307,-0.245277 z m 0.384616,41.764146 c 0.317307,-0.117473 0.836538,-0.406692 1.153846,-0.642711 0.501331,-0.3729 0.507758,-0.340935 0.04906,0.24395 -0.290326,0.370192 -0.809557,0.659411 -1.153846,0.642711 -0.523634,-0.02538 -0.531657,-0.06528 -0.04906,-0.24395 z M 31.568826,72.46795 c 0.01845,-0.448058 0.109592,-0.539192 0.232372,-0.232373 0.111104,0.277642 0.09744,0.609373 -0.03037,0.737181 -0.127804,0.127804 -0.218708,-0.09936 -0.202007,-0.504808 z m 29.008097,-0.160258 c 0.382881,-0.423077 0.782685,-0.76923 0.888454,-0.76923 0.105769,0 -0.120958,0.346153 -0.503839,0.76923 -0.38288,0.423077 -0.782684,0.769231 -0.888453,0.769231 -0.10577,0 0.120957,-0.346154 0.503838,-0.769231 z m -12.596154,0.129893 c 0.264423,-0.106697 0.697116,-0.106697 0.961539,0 0.264423,0.106696 0.04808,0.193996 -0.48077,0.193996 -0.528846,0 -0.745192,-0.0873 -0.480769,-0.193996 z m 9.357289,-0.610662 c -0.02046,-0.453442 -0.344131,-0.673077 -0.991904,-0.673077 -0.528846,0 -0.961539,-0.146254 -0.961539,-0.325004 0,-0.656657 1.522085,-1.686657 2.14132,-1.449034 0.689169,0.264457 3.627911,-0.487289 3.627911,-0.928039 0,-0.149946 0.692308,-0.730773 1.538462,-1.290731 0.846154,-0.559957 1.538461,-0.906273 1.538461,-0.769584 0,0.680288 -1.6579,2.810896 -2.015354,2.589977 -0.233696,-0.144431 -0.299819,-0.07393 -0.153184,0.163334 0.141904,0.229608 0.08211,0.526181 -0.132881,0.65905 -0.214988,0.13287 -0.390888,0.05829 -0.390888,-0.16573 0,-0.224023 -0.183293,-0.407316 -0.407316,-0.407316 -0.224023,0 -0.297696,0.177366 -0.163719,0.394146 0.133977,0.216777 0.100923,0.355566 -0.07345,0.308412 -0.961427,-0.259973 -2.868765,0.893408 -3.301796,1.996619 -0.176312,0.449185 -0.230192,0.427339 -0.254119,-0.103023 z M 28.412479,71.25 c -0.478412,-0.610023 -0.464808,-0.623627 0.145213,-0.145215 0.370193,0.290327 0.673077,0.593211 0.673077,0.673077 0,0.316553 -0.315841,0.112811 -0.81829,-0.527862 z m 1.027023,-0.06958 c -0.121704,-0.196923 -0.07423,-0.448923 0.105506,-0.560004 0.179733,-0.111081 0.326787,0.05004 0.326787,0.358039 0,0.648527 -0.121283,0.705188 -0.432293,0.201965 z m 30.856056,-0.475981 c 0.2235,-0.2235 0.633392,-0.330688 0.910869,-0.238196 0.288058,0.09602 0.113711,0.270362 -0.406365,0.406366 -0.63975,0.167296 -0.789916,0.117242 -0.504504,-0.16817 z m -2.622835,-2.255007 c -0.440677,-0.272354 -0.431415,-0.439373 0.05666,-1.022108 0.320877,-0.383108 0.786246,-1.172519 1.034153,-1.75425 0.351512,-0.82485 0.709547,-1.057692 1.626362,-1.057692 1.099254,0 1.1457,0.05621 0.714946,0.865384 -0.732392,1.375796 -1.950788,2.927908 -2.448231,3.118793 -0.251427,0.09648 -0.69418,0.02892 -0.983892,-0.150127 z m 6.798431,0.08989 c -0.104296,-0.168754 -0.03062,-0.558177 0.163719,-0.865385 0.275881,-0.436096 0.354639,-0.36883 0.359239,0.306827 0.006,0.889627 -0.189354,1.098339 -0.522958,0.558558 z m 1.373058,-1.808558 c 0.0078,-0.634615 0.09404,-0.847669 0.191553,-0.47345 0.09752,0.374219 0.0911,0.89345 -0.01427,1.153846 -0.105358,0.260397 -0.185142,-0.04578 -0.177304,-0.680396 z m 1.01983,-0.998531 c -0.0733,-1.078034 -0.0061,-2.159765 0.1493,-2.403846 0.155416,-0.244077 0.285223,0.637954 0.288462,1.96007 0.0071,2.898723 -0.252916,3.162315 -0.437762,0.443776 z m -4.806977,0.242589 c 0.137847,-0.359219 0.250627,-0.812046 0.250627,-1.006285 0,-0.194234 0.5625,-0.347654 1.25,-0.340927 1.202927,0.01177 1.221031,0.03458 0.48077,0.605108 -0.423077,0.326081 -1.098358,0.773404 -1.500627,0.99405 -0.61085,0.335054 -0.690089,0.293531 -0.48077,-0.251946 z m -34.121702,-1.39416 c -0.13368,-0.668404 -0.218847,-2.102297 -0.189259,-3.186431 0.04483,-1.6426 0.102841,-1.458289 0.348036,1.105769 0.310887,3.251 0.245821,4.10365 -0.158777,2.080662 z m 40.458675,-0.224577 c 0.164127,-0.804985 0.260843,-0.9017 0.372927,-0.372923 0.08323,0.392661 -0.0165,0.881746 -0.221596,1.086853 -0.240823,0.240823 -0.294427,-0.01208 -0.151331,-0.71393 z m -1.313492,-2.942689 c -0.306204,-0.350711 -0.280246,-0.610465 0.09615,-0.962073 0.422154,-0.39435 0.515608,-0.304619 0.515608,0.49505 0,1.106631 -0.032,1.131058 -0.611762,0.467023 z m 1.411358,-2.086473 c -0.01942,-0.553088 0.194019,-0.865385 0.591415,-0.865385 0.413581,0 0.560039,-0.236107 0.437389,-0.705126 -0.107185,-0.409862 0.01973,-0.705131 0.303084,-0.705131 0.555846,0 0.30642,1.019542 -0.392065,1.602565 -0.253431,0.211539 -0.561735,0.644231 -0.685119,0.961539 -0.151504,0.389607 -0.2342,0.29595 -0.254704,-0.288462 z M 29.239322,58.7727 c 0.0047,-0.276908 0.350281,-0.936162 0.767951,-1.465008 l 0.7594,-0.961538 -0.421208,1.250708 c -0.442463,1.313819 -1.120735,2.034826 -1.106143,1.175838 z m 39.46204,-2.826031 c -0.131904,-0.343731 -0.228854,-0.827157 -0.215443,-1.074281 0.01342,-0.247119 0.190204,-0.03477 0.392877,0.471912 0.202673,0.506673 0.299623,0.9901 0.215442,1.074281 -0.08418,0.08418 -0.260976,-0.128181 -0.392876,-0.471912 z m -0.654858,-3.734781 c -0.114481,-0.826823 -0.05571,-1.298019 0.137758,-1.10455 0.185576,0.185577 0.275419,0.834462 0.199653,1.441962 -0.126815,1.016777 -0.153627,0.989962 -0.337411,-0.337412 z M 32.307692,51.393246 c 0,-0.07986 0.302885,-0.38275 0.673077,-0.673077 0.610022,-0.478411 0.623626,-0.464807 0.145214,0.145216 -0.50245,0.640673 -0.818291,0.844415 -0.818291,0.527861 z m 34.615385,-2.547092 c 0,-0.211539 0.183292,-0.384616 0.407315,-0.384616 0.224023,0 0.300346,0.173077 0.169608,0.384616 -0.130738,0.211538 -0.314031,0.384615 -0.407315,0.384615 -0.09329,0 -0.169608,-0.173077 -0.169608,-0.384615 z m -0.04906,-1.442308 c -0.478411,-0.610023 -0.464807,-0.623627 0.145216,-0.145215 0.640673,0.50245 0.844415,0.818292 0.527861,0.818292 -0.07987,0 -0.38275,-0.302885 -0.673077,-0.673077 z M 39.054888,45.795808 c -0.121707,-0.196923 -0.01865,-0.483281 0.229035,-0.63635 0.2684,-0.165881 0.347654,-0.1122 0.196185,0.13288 -0.139773,0.226158 -0.03669,0.49885 0.229034,0.605985 0.345823,0.139423 0.352958,0.203427 0.02512,0.225158 -0.251939,0.01669 -0.557646,-0.130754 -0.67935,-0.327673 z m 16.618189,-0.665916 c 0.264423,-0.106696 0.697115,-0.106696 0.961538,0 0.264423,0.106696 0.04808,0.193996 -0.480769,0.193996 -0.528846,0 -0.745192,-0.0873 -0.480769,-0.193996 z m 7.261769,-1.099219 c -0.130408,-0.339838 -0.392981,-0.521554 -0.583496,-0.403808 -0.599477,0.370497 -4.274427,-3.383727 -4.274427,-4.366638 0,-0.767639 0.08467,-0.822605 0.603662,-0.391881 0.332015,0.275546 0.524984,0.801858 0.428823,1.169581 -0.11422,0.436777 0.354696,1.112858 1.352438,1.949946 0.840004,0.704746 1.676842,1.281358 1.859639,1.281358 0.484103,0 1.318492,0.911307 1.065773,1.164023 -0.11842,0.118419 -0.322004,-0.06274 -0.452412,-0.402581 z M 41.25,43.581027 c 0.370192,-0.09674 0.975962,-0.09674 1.346154,0 0.370192,0.09674 0.06731,0.175896 -0.673077,0.175896 -0.740385,0 -1.043269,-0.07915 -0.673077,-0.175896 z m -6.604251,-0.728462 c 0.01845,-0.448057 0.109593,-0.539192 0.232372,-0.232373 0.111104,0.277643 0.09744,0.609373 -0.03037,0.737181 -0.127804,0.127804 -0.218708,-0.09936 -0.202007,-0.504808 z m 28.623482,-0.160257 c -0.627081,-0.269466 -0.649043,-0.335546 -0.118854,-0.357581 0.357708,-0.01488 0.757346,0.146042 0.888085,0.357581 0.27333,0.442261 0.259965,0.442261 -0.769231,0 z M 33.522267,41.153846 c 0,-0.528846 0.0873,-0.745192 0.193995,-0.480769 0.106697,0.264423 0.106697,0.697115 0,0.961538 -0.106697,0.264423 -0.193995,0.04808 -0.193995,-0.480769 z m 25.088906,-4.732421 c -0.03973,-1.144292 -0.01539,-1.168528 0.352835,-0.351184 0.23988,0.532472 0.256673,1.016122 0.04267,1.229117 -0.213662,0.212664 -0.369666,-0.133626 -0.395508,-0.877933 z m 1.803808,-4.338092 c 0.01846,-0.448055 0.109592,-0.539192 0.232369,-0.232371 0.111104,0.277644 0.09744,0.609375 -0.03035,0.737179 -0.127808,0.127804 -0.218708,-0.09936 -0.202008,-0.504808 z M 47.368419,30.769231 c 0,-0.528846 0.0873,-0.745193 0.193996,-0.480769 0.106697,0.264423 0.106697,0.697115 0,0.961538 -0.106696,0.264423 -0.193996,0.04808 -0.193996,-0.480769 z m 12.871404,-0.591792 c -0.131904,-0.343732 -0.228854,-0.827159 -0.215442,-1.07428 0.01342,-0.247122 0.190204,-0.03476 0.392877,0.471912 0.202673,0.506673 0.299623,0.990099 0.215442,1.07428 -0.08418,0.08418 -0.260977,-0.12818 -0.392877,-0.471912 z M 47.692308,29.470171 c 0,-0.07987 0.302884,-0.382752 0.673077,-0.673077 0.610023,-0.478412 0.623627,-0.464808 0.145215,0.145214 -0.50245,0.640672 -0.818292,0.844415 -0.818292,0.527863 z m 1.184211,-2.002222 c 0.01846,-0.448055 0.109593,-0.539192 0.232369,-0.232372 0.111104,0.277644 0.09744,0.609375 -0.03035,0.73718 -0.127804,0.127804 -0.218707,-0.09936 -0.202007,-0.504808 z m 2.661943,-2.44525 c 0,-0.199054 0.171096,-0.467659 0.380211,-0.596899 0.218023,-0.134746 0.2825,0.01964 0.151158,0.361916 -0.255689,0.666314 -0.531369,0.788226 -0.531369,0.234983 z m 9.615384,0.216703 c 0,-0.07987 0.302885,-0.382752 0.673077,-0.673077 0.610023,-0.478412 0.623627,-0.464808 0.145215,0.145213 -0.50245,0.640673 -0.818292,0.844415 -0.818292,0.527864 z m 1.153846,0 c 0,-0.07987 0.302885,-0.382752 0.673077,-0.673077 0.610023,-0.478412 0.623627,-0.464808 0.145216,0.145213 -0.50245,0.640673 -0.818293,0.844415 -0.818293,0.527864 z m -6.153846,-1.043804 c -0.512819,-0.362672 -0.512819,-0.388825 0,-0.235372 0.317308,0.09495 1.009616,-0.194759 1.538462,-0.643796 L 58.653846,22.5 57.721419,23.557692 c -0.512838,0.581731 -0.945531,1.055042 -0.961538,1.051803 -0.016,-0.0032 -0.288727,-0.189493 -0.606035,-0.413897 z m -3.076923,-0.110042 c 0,-0.07987 0.302885,-0.382753 0.673077,-0.673077 0.610023,-0.478412 0.623627,-0.464808 0.145215,0.145213 -0.50245,0.640673 -0.818292,0.844415 -0.818292,0.527864 z M 50.799596,23.23718 c 0.01846,-0.448055 0.109592,-0.539193 0.232369,-0.232372 0.111104,0.277644 0.09744,0.609375 -0.03035,0.737179 -0.127807,0.127805 -0.218707,-0.09936 -0.202007,-0.504807 z m 12.085019,-0.160257 c 0.382881,-0.423077 0.782685,-0.769231 0.888454,-0.769231 0.105769,0 -0.120957,0.346154 -0.503838,0.769231 -0.382881,0.423077 -0.782685,0.769231 -0.888454,0.769231 -0.105769,0 0.120958,-0.346154 0.503838,-0.769231 z m -3.26923,-0.914444 c 0,-0.07987 0.302884,-0.382752 0.673077,-0.673077 0.610023,-0.478412 0.623626,-0.464808 0.145215,0.145213 -0.50245,0.640673 -0.818292,0.844415 -0.818292,0.527864 z m 1.153846,-1.538462 c 0,-0.07987 0.302884,-0.382752 0.673077,-0.673077 0.610023,-0.478412 0.623627,-0.464808 0.145215,0.145214 -0.50245,0.640672 -0.818292,0.844415 -0.818292,0.527863 z m 0.384615,-1.585555 c 0.717608,-0.740385 1.391281,-1.346154 1.49705,-1.346154 0.105769,0 -0.394827,0.605769 -1.112434,1.346154 -0.717608,0.740384 -1.391281,1.346153 -1.49705,1.346153 -0.10577,0 0.394826,-0.605769 1.112434,-1.346153 z m 4.807692,-0.576924 c 0.382881,-0.423076 0.782685,-0.76923 0.888454,-0.76923 0.10577,0 -0.120957,0.346154 -0.503838,0.76923 -0.382881,0.423077 -0.782685,0.769231 -0.888454,0.769231 -0.105769,0 0.120958,-0.346154 0.503838,-0.769231 z m 0.961539,0.239402 c 0,-0.07987 0.302885,-0.382752 0.673077,-0.673077 0.610023,-0.478411 0.623627,-0.464808 0.145215,0.145214 -0.50245,0.640672 -0.818292,0.844415 -0.818292,0.527863 z m -2.5,-2.162478 c 0.382881,-0.423077 0.782685,-0.769231 0.888454,-0.769231 0.105769,0 -0.120958,0.346154 -0.503839,0.769231 -0.38288,0.423076 -0.782684,0.76923 -0.888454,0.76923 -0.105769,0 0.120958,-0.346154 0.503839,-0.76923 z m 4.807692,-0.576924 C 69.727596,15.432692 70.220627,15 70.326396,15 c 0.105769,0 -0.214184,0.432692 -0.711011,0.961538 -0.496827,0.528847 -0.989858,0.961539 -1.095627,0.961539 -0.10577,0 0.214184,-0.432692 0.711011,-0.961539 z m -2.307692,-0.384615 c 0.496827,-0.528846 0.989858,-0.961538 1.095627,-0.961538 0.105769,0 -0.214185,0.432692 -0.711012,0.961538 -0.496827,0.528846 -0.989857,0.961539 -1.095627,0.961539 -0.105769,0 0.214185,-0.432693 0.711012,-0.961539 z m -0.192308,-0.961538 c 0.382881,-0.423077 0.782685,-0.769231 0.888454,-0.769231 0.105769,0 -0.120958,0.346154 -0.503838,0.769231 -0.382881,0.423077 -0.782685,0.76923 -0.888454,0.76923 -0.105769,0 0.120957,-0.346153 0.503838,-0.76923 z m 4.807693,-0.145214 c 0,-0.07987 0.302884,-0.382752 0.673076,-0.673077 0.610024,-0.478412 0.623627,-0.464808 0.145216,0.145214 -0.50245,0.640672 -0.818292,0.844415 -0.818292,0.527863 z m -2.115385,-1.008633 c 0.382881,-0.423076 0.782685,-0.76923 0.888454,-0.76923 0.105769,0 -0.120958,0.346154 -0.503839,0.76923 -0.38288,0.423077 -0.782684,0.769231 -0.888454,0.769231 -0.105769,0 0.120958,-0.346154 0.503839,-0.769231 z m 5.288758,-1.413531 c 0.141688,-0.589447 0.05042,-0.778787 -0.308931,-0.640892 -0.280516,0.107644 -0.823427,0.01342 -1.206466,-0.209388 -0.590826,-0.343672 -0.50505,-0.406879 0.565631,-0.4168 1.386531,-0.01285 2.058343,0.882827 1.236677,1.648772 -0.386584,0.360369 -0.446215,0.28104 -0.286911,-0.381692 z m -1.634912,-0.147629 c 0,-0.224023 0.173077,-0.300347 0.384615,-0.169609 0.211539,0.130738 0.384616,0.314029 0.384616,0.407314 0,0.09328 -0.173077,0.169609 -0.384616,0.169609 -0.211538,0 -0.384615,-0.183291 -0.384615,-0.407314 z"
         id="path530" />
      <path
         style="fill:#8c8c8c;fill-opacity:1;stroke-width:0.384615"
         d="m 48.076923,88.823454 c 0,-0.224023 -0.199819,-0.283819 -0.444042,-0.132881 -0.280908,0.173612 -0.339393,0.105112 -0.159196,-0.186458 0.156665,-0.253488 0.140138,-0.677811 -0.03673,-0.942934 -0.176866,-0.265127 -0.04017,-0.178369 0.303758,0.1928 0.34393,0.371165 0.704507,0.595669 0.80128,0.498896 0.09677,-0.09678 0.175954,0.08366 0.175954,0.400969 0,0.317308 -0.144231,0.576923 -0.320515,0.576923 -0.176277,0 -0.320508,-0.183292 -0.320509,-0.407315 z m 0.879127,-1.364066 c -0.875742,-0.946992 -0.671912,-1.299653 0.254404,-0.440157 0.423592,0.393038 0.473527,0.3543 0.273634,-0.212285 -0.15415,-0.436934 -0.09431,-0.600227 0.161924,-0.441865 0.223534,0.138154 0.317815,0.482115 0.209507,0.764357 -0.118377,0.308489 0.216331,0.664377 0.839166,0.89227 l 1.036084,0.379104 -0.961538,-0.01023 C 50.240385,88.384982 49.424454,87.96592 48.95605,87.459409 Z M 61.399373,87.5 c 0.121765,-0.317308 0.397139,-0.576923 0.611946,-0.576923 0.225119,0 0.187739,0.244388 -0.08824,0.576923 -0.263342,0.317308 -0.538719,0.576923 -0.611946,0.576923 -0.07323,0 -0.03354,-0.259615 0.08824,-0.576923 z M 41.730769,86.923077 c 0.2192,-1.138212 0.632835,-1.55185 0.467327,-0.467327 -0.06985,0.457665 -0.241408,0.946538 -0.38125,1.086381 C 41.677,87.681973 41.638269,87.4034 41.730769,86.923077 Z m -3.829729,0.02658 c -0.121704,-0.196923 -0.07423,-0.448923 0.105507,-0.560004 0.179732,-0.111081 0.326786,0.05003 0.326786,0.358038 0,0.648527 -0.121283,0.705189 -0.432293,0.201966 z m 5.782187,-0.510016 c -0.581223,-0.63158 -0.607165,-0.753038 -0.121004,-0.56648 0.340365,0.130611 0.691519,0.03085 0.780339,-0.221689 0.08881,-0.252538 0.164903,0.01681 0.169076,0.598531 0.0042,0.581731 -0.01404,1.043269 -0.04048,1.025642 -0.02642,-0.01762 -0.381008,-0.39383 -0.787927,-0.836004 z m 12.294738,-0.259215 c -0.255761,-0.413827 0.497031,-0.987481 0.842497,-0.642015 0.12695,0.126954 0.01869,0.230823 -0.240597,0.230823 -0.25928,0 -0.36445,0.173077 -0.233711,0.384615 0.130738,0.211539 0.151165,0.384616 0.0454,0.384616 -0.105769,0 -0.291881,-0.16112 -0.413585,-0.358039 z m -8.089473,-0.417465 c 0.13287,-0.214989 0.4027,-0.291316 0.599623,-0.169608 0.533477,0.329704 0.434004,0.560496 -0.241584,0.560496 -0.329793,0 -0.490908,-0.1759 -0.358039,-0.390888 z m 4.034585,-0.378343 C 51.923077,85.173077 52.096154,85 52.307692,85 c 0.211539,0 0.384616,0.173077 0.384616,0.384615 0,0.211539 -0.173077,0.384616 -0.384616,0.384616 -0.211538,0 -0.384615,-0.173077 -0.384615,-0.384616 z m -0.769231,-1.176546 c 0,-0.224023 0.173077,-0.300346 0.384616,-0.169607 0.211538,0.130738 0.384615,0.31403 0.384615,0.407315 0,0.09328 -0.173077,0.169608 -0.384615,0.169608 -0.211539,0 -0.384616,-0.183293 -0.384616,-0.407316 z m -9.531542,-0.554223 c 0.0039,-0.423077 0.139292,-1.288461 0.300773,-1.923077 0.263727,-1.036431 0.294335,-1.056 0.300773,-0.192307 0.0039,0.528846 -0.131408,1.39423 -0.300773,1.923076 -0.2413,0.753458 -0.306389,0.795077 -0.300773,0.192308 z m 4.946523,-0.03204 c 0.01846,-0.448058 0.109592,-0.539193 0.232369,-0.232373 0.111104,0.277642 0.09744,0.609373 -0.03035,0.73718 -0.127808,0.127804 -0.218708,-0.09936 -0.202008,-0.504807 z m 6.508096,0.224346 c 0,-0.211539 0.259615,-0.384616 0.576923,-0.384616 0.317308,0 0.576923,0.173077 0.576923,0.384616 0,0.211538 -0.259615,0.384615 -0.576923,0.384615 -0.317308,0 -0.576923,-0.173077 -0.576923,-0.384615 z m -10.35425,-1.762819 c 0.01846,-0.448058 0.109592,-0.539193 0.232369,-0.232373 0.111104,0.277642 0.09744,0.609373 -0.03035,0.73718 -0.127808,0.127804 -0.218708,-0.09936 -0.202008,-0.504807 z m 4.376896,-0.185847 c -0.139434,-0.225611 -0.171031,-0.492692 -0.07021,-0.593511 0.100815,-0.100819 0.285792,0.08377 0.411057,0.410204 0.26007,0.677734 0.03842,0.796946 -0.340847,0.183307 z m 0.238489,-2.121846 c 0.01846,-0.448057 0.109592,-0.539192 0.232369,-0.232373 0.111104,0.277643 0.09744,0.609373 -0.03035,0.737181 -0.127808,0.127804 -0.218708,-0.09936 -0.202008,-0.504808 z m -6.953443,-2.106034 c 0,-0.224023 -0.199819,-0.28382 -0.444042,-0.132881 -0.268885,0.166181 -0.339885,0.105904 -0.179988,-0.152812 0.145227,-0.234984 0.517127,-0.330127 0.826446,-0.21143 0.309319,0.118696 0.466638,0.370753 0.3496,0.560123 -0.287262,0.4648 -0.552016,0.434584 -0.552016,-0.063 z m 4.8524,-0.576408 c -0.130677,-0.340538 -0.06571,-0.494265 0.152004,-0.359708 0.209116,0.129239 0.380212,-0.121384 0.380212,-0.556946 0,-0.435561 0.129807,-0.805173 0.288461,-0.821358 0.158654,-0.01619 0.590658,-0.08731 0.960012,-0.15805 0.369354,-0.07075 0.785515,0.05578 0.924811,0.281162 0.154335,0.249719 0.0697,0.296338 -0.216669,0.11935 -0.303265,-0.187427 -0.551865,0.02289 -0.700965,0.593054 -0.217658,0.832323 -0.248004,0.840131 -0.524004,0.134854 -0.274181,-0.700631 -0.2947,-0.6946 -0.319996,0.09405 -0.03354,1.045192 -0.636219,1.475304 -0.943866,0.673592 z m -3.313938,-0.298327 c 0,-0.352565 0.183292,-0.641027 0.407315,-0.641027 0.224023,0 0.28382,-0.199819 0.132881,-0.444042 -0.173985,-0.281512 -0.105065,-0.339366 0.188285,-0.158066 0.358042,0.221281 0.3526,0.430497 -0.02404,0.924812 -0.267723,0.351358 -0.535742,0.71095 -0.5956,0.799092 -0.05986,0.08814 -0.108834,-0.128207 -0.108834,-0.480769 z m -2.859889,-0.753769 c 0.144435,-0.379316 0.359497,-0.592777 0.477916,-0.474358 0.118419,0.118419 2.46e-4,0.428766 -0.262608,0.689666 -0.379854,0.377023 -0.424031,0.332846 -0.215308,-0.215308 z m 9.9917,-0.629912 c -0.121707,-0.196923 -0.07423,-0.448923 0.105504,-0.560004 0.179735,-0.11108 0.326789,0.05004 0.326789,0.358039 0,0.648527 -0.121285,0.705188 -0.432293,0.201965 z M 33.653846,75 c 0.130738,-0.211538 0.314029,-0.384615 0.407314,-0.384615 0.09329,0 0.169609,0.173077 0.169609,0.384615 0,0.211538 -0.183291,0.384615 -0.407314,0.384615 -0.224023,0 -0.300347,-0.173077 -0.169609,-0.384615 z m 11.197342,-0.454992 c 0.111081,-0.179731 0.363081,-0.227212 0.560004,-0.105504 0.503223,0.311008 0.446562,0.432292 -0.201965,0.432292 -0.308004,0 -0.469119,-0.147054 -0.358039,-0.326788 z m 7.84112,0.03635 c 0,-0.192823 0.129807,-0.363827 0.288461,-0.380012 0.158654,-0.01619 0.613966,-0.09073 1.011808,-0.165654 0.534119,-0.100588 0.6106,-0.0235 0.292354,0.294766 -0.547539,0.547538 -1.592623,0.712181 -1.592623,0.2509 z M 30.384615,74.230769 c 0,-0.211538 0.259616,-0.384615 0.576923,-0.384615 0.317308,0 0.576924,-0.201923 0.576924,-0.448719 0,-0.246793 0.111201,-0.337516 0.247115,-0.2016 0.286243,0.286242 -0.562762,1.41955 -1.06344,1.41955 -0.185637,0 -0.337522,-0.173077 -0.337522,-0.384616 z m 11.529677,-0.04874 c -0.498104,-0.345816 -0.497019,-0.373312 0.0088,-0.223039 0.317307,0.09427 0.862626,-0.0769 1.211815,-0.380388 0.518135,-0.450316 0.688623,-0.458769 0.92705,-0.04597 0.160685,0.278204 0.148642,0.375639 -0.02677,0.216524 -0.175404,-0.159116 -0.596527,-0.03808 -0.935835,0.269003 -0.441885,0.3999 -0.778111,0.446393 -1.185058,0.163866 z m 4.475358,-0.02165 c 0.111081,-0.179731 0.363081,-0.227212 0.560004,-0.105504 0.503223,0.311008 0.446561,0.432292 -0.201966,0.432292 -0.308003,0 -0.469119,-0.147053 -0.358038,-0.326788 z m 1.472323,-0.14315 c -0.725688,-0.581396 -0.723777,-0.587158 0.06823,-0.205839 0.448146,0.215766 0.951858,0.268585 1.119354,0.117374 0.1675,-0.151212 0.180042,-0.05859 0.02788,0.205838 -0.3451,0.599681 -0.317065,0.602388 -1.215453,-0.117373 z M 34.615385,73.846154 c 0,-0.211539 0.183291,-0.384616 0.407314,-0.384616 0.224023,0 0.300347,0.173077 0.169609,0.384616 -0.130738,0.211538 -0.31403,0.384615 -0.407315,0.384615 -0.09329,0 -0.169608,-0.173077 -0.169608,-0.384615 z m 3.076923,0.141738 c 0,-0.06307 0.33565,-0.294307 0.745889,-0.513861 0.532668,-0.285077 0.824522,-0.271958 1.020965,0.04589 0.170657,0.276131 0.106519,0.340912 -0.168966,0.17065 -0.244223,-0.150938 -0.444042,-0.119988 -0.444042,0.06878 0,0.188765 -0.259616,0.343211 -0.576923,0.343211 -0.317308,0 -0.576923,-0.0516 -0.576923,-0.114673 z m 2.442111,-0.213042 c 0.113843,-0.356527 3.62e-4,-0.732285 -0.252181,-0.835019 -0.353988,-0.144008 -0.354238,-0.19375 -0.0012,-0.217158 0.678346,-0.04497 0.891715,0.506477 0.441807,1.141846 -0.326934,0.461704 -0.359627,0.446158 -0.188534,-0.08967 z m 11.6996,-0.762715 c 0.2235,-0.2235 0.633393,-0.330689 0.910869,-0.238197 0.288058,0.09602 0.113712,0.270362 -0.406365,0.406366 -0.63975,0.167296 -0.789915,0.117242 -0.504504,-0.168169 z M 29.745053,72.596154 c -0.499175,-0.799042 -0.457597,-1.314104 0.10608,-1.314104 0.293415,0 0.533482,0.144231 0.533482,0.320515 0,0.176281 -0.194269,0.320512 -0.431709,0.320512 -0.298272,0 -0.283715,0.178323 0.04709,0.576923 0.263342,0.317308 0.381287,0.576923 0.262101,0.576923 -0.119187,0 -0.351859,-0.216346 -0.517048,-0.480769 z m 2.562639,0.03205 c 0,-0.176281 0.162863,-0.320512 0.361917,-0.320512 0.199054,0 0.451056,0.144231 0.560004,0.320512 0.108949,0.176284 -0.05391,0.320515 -0.361916,0.320515 -0.308003,0 -0.560005,-0.144231 -0.560005,-0.320515 z m 17.235577,-0.198631 c 0.277643,-0.111104 0.609373,-0.09744 0.737181,0.03035 0.127804,0.127804 -0.09936,0.218708 -0.504808,0.202008 -0.448057,-0.01846 -0.539192,-0.109592 -0.232373,-0.232369 z m -2.235577,-0.529196 c 0,-0.224023 0.173077,-0.300346 0.384616,-0.169608 0.211538,0.130739 0.384615,0.314031 0.384615,0.407316 0,0.09328 -0.173077,0.169607 -0.384615,0.169607 -0.211539,0 -0.384616,-0.183292 -0.384616,-0.407315 z m 6.346154,0.0227 c 0.130739,-0.211539 0.530377,-0.381965 0.888085,-0.378727 0.560488,0.0051 0.570642,0.05742 0.07345,0.378727 -0.75322,0.486769 -1.262377,0.486769 -0.961539,0 z m -4.879808,-0.262735 c 0.277643,-0.111104 0.609374,-0.09744 0.737181,0.03035 0.127804,0.127804 -0.09936,0.218708 -0.504807,0.202008 -0.448058,-0.01846 -0.539193,-0.109592 -0.232374,-0.232369 z m 7.1875,-0.12188 c -0.130738,-0.211539 -0.05441,-0.384616 0.169608,-0.384616 0.224023,0 0.407316,0.173077 0.407316,0.384616 0,0.211538 -0.07632,0.384615 -0.169608,0.384615 -0.09329,0 -0.276577,-0.173077 -0.407316,-0.384615 z m 4.320512,-0.432343 c 0.2609,-0.262854 0.571246,-0.381027 0.689665,-0.262607 0.11842,0.118419 -0.09504,0.33348 -0.474357,0.477915 -0.548154,0.208723 -0.592331,0.164546 -0.215308,-0.215308 z m -8.358973,-0.336888 c 0.317308,-0.205062 0.75,-0.372835 0.961538,-0.372835 0.211539,0 0.125,0.167773 -0.192307,0.372835 -0.317308,0.205061 -0.75,0.372834 -0.961539,0.372834 -0.211538,0 -0.125,-0.167773 0.192308,-0.372834 z M 55,70.810635 c 0,-0.270654 -0.204746,-0.351697 -0.480769,-0.190297 -0.264423,0.154616 -0.177166,-0.06594 0.193907,-0.490123 0.37107,-0.42418 0.934289,-0.771242 1.251597,-0.771242 0.482853,0 0.46758,0.130658 -0.09365,0.801285 -0.368816,0.440704 -0.715689,0.873396 -0.770827,0.961538 C 55.045115,71.209935 55,71.069915 55,70.810635 Z m 6.714719,-0.39397 c 0.106316,-0.724346 0.704246,-0.661477 0.813889,0.08558 0.04225,0.287866 -0.1437,0.523396 -0.413223,0.523396 -0.269523,0 -0.449823,-0.274038 -0.400666,-0.608976 z m -32.74036,-0.261027 c 0,-0.605603 0.482903,-0.722646 0.808425,-0.195938 0.117039,0.189369 -0.01698,0.432485 -0.297814,0.54025 -0.280836,0.107769 -0.510611,-0.04717 -0.510611,-0.344312 z m 17.371795,0.1949 c -0.590712,-0.280003 -0.434508,-0.323969 0.673077,-0.189453 1.490754,0.181053 1.773027,-0.06113 0.987181,-0.846981 -0.849731,-0.849731 -0.02231,-0.897858 1.277134,-0.07429 0.871385,0.552277 1.011027,0.738816 0.427992,0.571731 -0.484953,-0.138977 -0.865384,-0.07928 -0.865384,0.135785 0,0.211081 0.389423,0.458788 0.865384,0.550465 0.475962,0.09167 0.08654,0.178085 -0.865384,0.192023 -0.951923,0.01392 -2.076923,-0.138734 -2.5,-0.33928 z m 16.981023,-0.145911 c -0.119162,-0.310535 -0.08707,-0.6447 0.07132,-0.742589 0.158389,-0.09789 0.31315,0.156185 0.343916,0.564608 0.06653,0.883292 -0.114762,0.961 -0.415236,0.177981 z m -33.110141,-0.4765 c -0.208725,-0.548154 -0.164547,-0.592331 0.215306,-0.215308 0.262853,0.2609 0.381027,0.571246 0.262609,0.689666 -0.118418,0.118419 -0.33348,-0.09504 -0.477915,-0.474358 z m 34.428714,-0.3371 c 0.01846,-0.448058 0.109592,-0.539192 0.232369,-0.232373 0.111104,0.277642 0.09744,0.609373 -0.03035,0.737181 -0.127808,0.127803 -0.218708,-0.09936 -0.202008,-0.504808 z m -6.640942,-0.03838 c 0.277642,-0.111104 0.609373,-0.09744 0.73718,0.03035 0.127804,0.127804 -0.09936,0.218708 -0.504807,0.202008 -0.448058,-0.01846 -0.539193,-0.109592 -0.232373,-0.232369 z m 7.379807,-0.557769 c 0,-0.521796 -0.188157,-1.136877 -0.418127,-1.366846 -0.285646,-0.285646 -0.291803,-0.496204 -0.01942,-0.664535 0.434035,-0.26825 1.077281,2.340381 0.676039,2.74162 -0.131173,0.131165 -0.238489,-0.188447 -0.238489,-0.710239 z m -12.279273,-0.10679 c -0.344873,-0.415546 -0.341984,-0.60968 0.01235,-0.828657 0.294554,-0.182043 0.36225,-0.123416 0.186274,0.161319 -0.166289,0.269065 0.07823,0.589538 0.613653,0.804277 0.585904,0.234985 0.676166,0.365315 0.264108,0.381361 -0.344288,0.01342 -0.828654,-0.219826 -1.076365,-0.5183 z m 3.20427,-0.521638 c 0.738811,-0.865935 1.233376,-1.166023 0.82038,-0.497781 -0.1227,0.198539 0.08343,0.539427 0.458073,0.757535 0.643677,0.374734 0.644123,0.397204 0.0081,0.408254 -0.370192,0.0064 -0.673077,-0.182573 -0.673077,-0.420012 0,-0.2851 -0.22858,-0.254696 -0.673077,0.08952 -0.547938,0.424331 -0.536857,0.361577 0.05961,-0.337519 z m 2.151926,0.528546 c 0,-0.08314 0.268604,-0.254231 0.5969,-0.380211 0.342277,-0.131343 0.496662,-0.06687 0.361916,0.151157 -0.225869,0.365466 -0.958816,0.540558 -0.958816,0.229054 z m 1.744966,-0.466515 c -0.476892,-0.476893 -0.51625,-0.739873 -0.172685,-1.153846 0.244743,-0.294897 0.531523,-0.536173 0.637293,-0.536173 0.105769,0 -0.02315,0.259615 -0.286497,0.576923 -0.27598,0.332534 -0.313361,0.576923 -0.08824,0.576923 0.214808,0 0.490181,0.259615 0.611946,0.576923 0.285204,0.743231 0.06965,0.730715 -0.701815,-0.04075 z M 50.59335,67.334269 c -0.121708,-0.196923 -0.01865,-0.483281 0.229035,-0.63635 0.301861,-0.186561 0.346527,-0.110377 0.135484,0.231093 -0.230504,0.372965 -0.138057,0.441569 0.345166,0.256138 0.39203,-0.150435 0.564588,-0.09889 0.425011,0.126946 -0.296008,0.478954 -0.845754,0.489696 -1.134696,0.02215 z m 11.483069,0.06958 c 0.152169,-0.264423 0.09338,-0.480769 -0.130642,-0.480769 -0.224023,0 -0.407315,-0.144231 -0.407315,-0.320512 0,-0.176284 0.240065,-0.320515 0.53348,-0.320515 0.568781,0 0.604012,0.805177 0.05702,1.302973 -0.181066,0.164777 -0.204708,0.08325 -0.05254,-0.181177 z M 28.076923,66.538462 c 0,-0.71795 0.102564,-0.820512 0.461539,-0.461539 0.358974,0.358973 0.358974,0.564104 0,0.923077 -0.358975,0.358973 -0.461539,0.256412 -0.461539,-0.461538 z m 29.462696,0.448719 c -0.10895,-0.176285 0.0463,-0.320516 0.344996,-0.320516 0.298697,0 0.453947,0.144231 0.344997,0.320516 -0.108947,0.176281 -0.264197,0.320511 -0.344997,0.320511 -0.0808,0 -0.23605,-0.14423 -0.344996,-0.320511 z M 29.471154,66.61625 c -0.104296,-0.168754 -0.03563,-0.555992 0.152583,-0.860535 0.258044,-0.417523 0.326269,-0.342057 0.27739,0.306827 -0.07033,0.933677 -0.139829,1.023173 -0.429973,0.553708 z m 26.682692,-0.100488 c 0,-0.224024 0.173077,-0.300347 0.384616,-0.169608 0.211538,0.130738 0.384615,0.314031 0.384615,0.407315 0,0.09329 -0.173077,0.169608 -0.384615,0.169608 -0.211539,0 -0.384616,-0.183292 -0.384616,-0.407315 z m 7.069008,-0.123231 c 0.04852,-0.330569 0.195623,-0.708443 0.326896,-0.839719 0.131277,-0.131274 0.198988,0.03177 0.150473,0.36235 -0.04852,0.330569 -0.195623,0.708442 -0.326896,0.839719 -0.131277,0.131273 -0.198989,-0.03177 -0.150473,-0.36235 z m 4.499819,-0.463043 c 0.01846,-0.448057 0.109592,-0.539192 0.232369,-0.232373 0.111104,0.277643 0.09744,0.609373 -0.03035,0.737181 -0.127808,0.127804 -0.218708,-0.09936 -0.202008,-0.504808 z m -3.351719,-0.84515 c 0.161204,-0.260834 -0.215816,-0.477919 -0.998269,-0.574796 -1.246897,-0.15438 -1.245366,-0.156177 0.185007,-0.217219 1.408977,-0.06013 1.886377,0.387831 0.998266,0.936712 -0.265696,0.164207 -0.34,0.106092 -0.185004,-0.144697 z m -5.186692,-0.576292 c 0.185576,-0.185577 0.834461,-0.275419 1.441961,-0.199654 1.016777,0.126816 0.989962,0.153627 -0.337411,0.337412 -0.826824,0.114481 -1.29802,0.05571 -1.10455,-0.137758 z m -1.972724,-0.147384 c 0.264424,-0.106697 0.697116,-0.106697 0.961539,0 0.264423,0.106696 0.04808,0.193996 -0.480769,0.193996 -0.528846,0 -0.745193,-0.0873 -0.48077,-0.193996 z m -0.743092,-0.598339 c 0.205108,-0.205108 0.694192,-0.304827 1.086854,-0.221596 0.528777,0.112085 0.432062,0.2088 -0.372923,0.372927 -0.701854,0.143096 -0.954754,0.08949 -0.713931,-0.151331 z m 8.762346,-0.17535 c 0.232704,-0.174758 0.532535,-0.577358 0.666293,-0.894665 0.170877,-0.405366 0.216619,-0.357658 0.153827,0.160434 -0.04916,0.40555 -0.348989,0.80815 -0.666297,0.894666 -0.371069,0.10118 -0.425953,0.04393 -0.153823,-0.160435 z M 29.645749,62.852565 c 0.01845,-0.448057 0.109593,-0.539192 0.232372,-0.232373 0.111104,0.277643 0.09744,0.609373 -0.03037,0.737181 -0.127804,0.127804 -0.218708,-0.09936 -0.202007,-0.504808 z m 37.329705,-0.471419 c -0.03485,-0.590646 -0.213396,-0.797173 -0.533146,-0.61665 -0.381681,0.215485 -0.383,0.165996 -0.0064,-0.240123 0.622396,-0.671196 0.976946,-0.277835 0.762942,0.84645 l -0.171008,0.898408 -0.05238,-0.888085 z M 28.621941,60.664458 c 0.103511,-0.840685 0.02832,-1.358016 -0.178779,-1.230023 -0.196585,0.121496 -0.254355,-0.0477 -0.128376,-0.375997 0.258941,-0.674792 0.915983,-0.81078 0.915983,-0.189584 0,0.224023 0.185854,0.29245 0.41301,0.152058 0.286241,-0.176904 0.298381,-0.03631 0.03955,0.458073 -0.205402,0.392327 -0.568438,1.146015 -0.806748,1.674861 -0.396798,0.880558 -0.418244,0.839342 -0.25464,-0.489388 z m 39.544213,0.104773 c 0,-0.740385 0.07915,-1.043269 0.175896,-0.673077 0.09674,0.370192 0.09674,0.975961 0,1.346154 -0.09674,0.370192 -0.175896,0.06731 -0.175896,-0.673077 z m -4.629635,-0.192308 c 0.0078,-0.634615 0.09404,-0.847669 0.191554,-0.47345 0.09752,0.374219 0.0911,0.89345 -0.01427,1.153846 -0.105358,0.260396 -0.185142,-0.04578 -0.177304,-0.680396 z m -33.506155,-0.03204 c 0.01845,-0.448058 0.109593,-0.539193 0.232372,-0.232373 0.111104,0.277642 0.09744,0.609373 -0.03036,0.73718 -0.127805,0.127804 -0.218708,-0.09936 -0.202008,-0.504807 z M 44.414165,60.37021 c -0.102953,-0.166585 0.241535,-0.25582 0.765531,-0.1983 0.523996,0.05752 0.860789,-0.04417 0.748427,-0.225966 -0.112358,-0.181804 -0.5835,-0.350627 -1.046977,-0.375165 -0.678323,-0.03592 -0.7078,-0.07962 -0.151131,-0.224069 0.680354,-0.176543 1.808447,0.470284 1.808447,1.03693 0,0.385258 -1.885258,0.373339 -2.124297,-0.01342 z m 2.96057,-0.491143 c -0.45995,-0.489596 -0.833623,-1.052096 -0.830385,-1.25 0.0031,-0.197904 0.170004,-0.100211 0.370588,0.217096 0.200585,0.317308 0.544085,0.576923 0.763343,0.576923 0.219254,0 0.383861,0.153727 0.365792,0.341616 -0.01808,0.187884 0.198277,0.488119 0.480769,0.667184 0.282493,0.179066 0.327443,0.328227 0.09989,0.331466 -0.227547,0.0031 -0.790047,-0.394689 -1.25,-0.884285 z m 19.932957,-0.240984 c 0,-0.199054 0.171096,-0.467662 0.380212,-0.5969 0.218023,-0.134747 0.2825,0.01965 0.151158,0.361915 -0.255689,0.666315 -0.53137,0.788227 -0.53137,0.234985 z m -19.433457,-1.15975 c 0.125027,-0.2023 0.481396,-0.27032 0.79193,-0.151158 0.795043,0.305088 0.701354,0.518977 -0.227327,0.518977 -0.435561,0 -0.689634,-0.165519 -0.564603,-0.367819 z m 1.367315,-0.393047 c -0.481304,-0.298911 -0.463023,-0.391173 0.122004,-0.615669 0.390196,-0.149731 0.885123,-0.05099 1.143069,0.228043 0.334142,0.361461 0.336,0.425438 0.007,0.24098 -0.246354,-0.138119 -0.505969,-0.08252 -0.576923,0.123558 -0.07973,0.231592 -0.345219,0.240412 -0.695146,0.02308 z M 67.781538,57.30769 c 0,-0.740384 0.07915,-1.043269 0.175897,-0.673077 0.09674,0.370193 0.09674,0.975962 0,1.346154 -0.09674,0.370193 -0.175897,0.06731 -0.175897,-0.673077 z m 1.479597,0.896843 c -0.01669,-0.247123 -0.129973,-0.766354 -0.251716,-1.153847 -0.210404,-0.6697 -0.19955,-0.670538 0.219531,-0.01696 0.242481,0.378161 0.355754,0.897392 0.251712,1.153846 -0.136531,0.336535 -0.197612,0.341258 -0.219527,0.01696 z m -40.414981,-0.27877 c 0,-0.08314 0.268604,-0.25423 0.596899,-0.380211 0.342279,-0.131342 0.496662,-0.06687 0.361917,0.151158 -0.225869,0.365465 -0.958816,0.540557 -0.958816,0.229053 z m 18.461538,-0.245527 c 0,-0.2049 0.259616,-0.372546 0.576923,-0.372546 0.317308,0 0.576923,0.06802 0.576923,0.151158 0,0.08314 -0.259615,0.250781 -0.576923,0.372546 -0.317307,0.121762 -0.576923,0.05374 -0.576923,-0.151158 z m -17.040825,-0.6185 c -0.35894,-0.358938 0.07481,-0.907892 0.71737,-0.907892 0.304824,0 0.540561,0.302885 0.52386,0.673077 -0.01814,0.402092 -0.108468,0.479515 -0.224359,0.192308 -0.106697,-0.264423 -0.362863,-0.480769 -0.569257,-0.480769 -0.206395,0 -0.268296,0.173076 -0.137558,0.384615 0.265649,0.429827 0.06904,0.517754 -0.310056,0.138661 z M 50.769231,55.2394 c 0,-0.07987 0.302884,-0.38275 0.673077,-0.673077 0.610023,-0.478411 0.623627,-0.464808 0.145215,0.145215 -0.50245,0.640674 -0.818292,0.844416 -0.818292,0.527862 z m 1.755496,-0.736758 c 0.144435,-0.379315 0.359496,-0.592777 0.477915,-0.474357 0.11842,0.118419 2.46e-4,0.428765 -0.262607,0.689665 -0.379854,0.377023 -0.424031,0.332846 -0.215308,-0.215308 z M 68.13765,54.230769 c 0,-0.528846 0.0873,-0.745192 0.193996,-0.480769 0.106696,0.264423 0.106696,0.697115 0,0.961538 -0.106696,0.264424 -0.193996,0.04808 -0.193996,-0.480769 z m -27.369119,0.09615 c -3.85e-4,-0.158654 1.058423,-0.228792 2.352911,-0.155865 1.808677,0.101896 2.284862,0.02135 2.056662,-0.347889 -0.192023,-0.3107 -0.14005,-0.383507 0.147084,-0.20605 1.030435,0.636843 0.286077,0.998266 -2.055957,0.998266 -1.375,0 -2.500316,-0.129808 -2.5007,-0.288462 z M 30,54.085554 c 0,-0.07987 0.302885,-0.38275 0.673077,-0.673077 0.610021,-0.478412 0.623625,-0.464808 0.145213,0.145215 C 30.315841,54.198365 30,54.402108 30,54.085554 Z m 23.231931,-1.820108 c -1.086319,-1.1371 -1.096335,-1.183584 -0.369958,-1.717092 0.410623,-0.301596 1.362546,-0.560519 2.115385,-0.575389 1.144384,-0.02262 1.24268,-0.08512 0.599565,-0.38135 -0.643831,-0.296553 -0.656196,-0.339173 -0.07584,-0.261427 1.281507,0.171674 0.7352,0.859589 -0.905012,1.139593 -2.020804,0.344977 -2.217585,0.535081 -1.400104,1.352565 0.58315,0.583146 0.650185,0.586542 0.650185,0.03292 0,-0.419096 0.432165,-0.667715 1.346154,-0.774415 0.740384,-0.08644 1.346154,-0.01885 1.346154,0.150227 0,0.169061 -0.519231,0.307384 -1.153847,0.307384 -1.206811,0 -1.440688,0.328543 -0.735719,1.033512 0.249173,0.249173 0.272954,0.50785 0.05886,0.640169 -0.1976,0.122127 -0.861719,-0.303888 -1.475823,-0.946697 z M 34.525994,51.897788 c 0.691219,-0.754292 1.138335,-1.489869 0.993589,-1.634615 C 35.374838,50.118427 35.458333,50 35.705128,50 c 0.786024,0 0.488769,0.581527 -0.99359,1.943781 l -1.442307,1.32545 z m -2.248836,-0.06935 c 0.512052,-0.580896 1.017237,-0.969942 1.122634,-0.864546 0.105396,0.1054 0.50856,-0.09518 0.895919,-0.445742 C 34.692425,50.159131 35,50.068869 35,50.311473 c 0,0.236881 -0.346154,0.61595 -0.769231,0.842373 -0.423077,0.226423 -0.769231,0.288881 -0.769231,0.138796 0,-0.150084 -0.475961,0.146708 -1.057692,0.659546 l -1.057692,0.932427 z M 31.923077,50 c 0,-0.211538 0.422478,-0.384615 0.93884,-0.384615 1.273383,0 1.58823,-0.658558 0.755017,-1.57925 -0.581372,-0.642408 -0.591919,-0.72422 -0.06742,-0.52295 1.519596,0.583127 0.978936,2.87143 -0.678435,2.87143 -0.521403,0 -0.948006,-0.173077 -0.948006,-0.384615 z m 4.615385,0.07196 c 0,-0.171962 0.51923,-0.810112 1.153846,-1.418112 1.296065,-1.241708 1.486419,-1.823654 0.480769,-1.469784 -0.549447,0.193342 -0.58477,0.141673 -0.192308,-0.2813 0.264423,-0.284981 0.480769,-0.675124 0.480769,-0.866989 0,-0.191861 -0.216346,-0.273561 -0.480769,-0.181554 -0.264423,0.09201 -0.810988,-0.176423 -1.214589,-0.596515 -0.724829,-0.754446 -0.722473,-0.760769 0.192308,-0.516008 0.50937,0.136292 1.229012,0.250166 1.599204,0.253054 0.370193,0.0031 0.646039,0.135058 0.612996,0.293712 -0.03304,0.158653 0.09922,0.674192 0.293916,1.145638 0.334158,0.809142 0.415734,0.82515 1.455696,0.285612 0.980612,-0.50875 1.048815,-0.507847 0.620527,0.0082 -0.264642,0.318873 -0.684465,0.579773 -0.932942,0.579773 -0.248473,0 -1.127793,0.692308 -1.954039,1.538461 -1.455535,1.490604 -2.115384,1.872966 -2.115384,1.225804 z m 1.923076,-1.418112 c 0.717608,-0.740384 1.218204,-1.346154 1.112435,-1.346154 -0.105769,0 -0.779442,0.60577 -1.49705,1.346154 C 37.359314,49.394231 36.858718,50 36.964487,50 c 0.105769,0 0.779443,-0.605769 1.497051,-1.346154 z m 7.516427,1.372731 c -0.121707,-0.196923 -0.01865,-0.483281 0.229035,-0.63635 0.299969,-0.185392 0.346604,-0.110504 0.139681,0.224308 -0.245208,0.396753 0.04605,0.45335 1.382881,0.268715 1.130023,-0.156073 1.437565,-0.120573 0.924284,0.1067 -1.034519,0.458065 -2.403834,0.476808 -2.675881,0.03661 z m -14.79974,-0.507346 c -0.01341,-0.370193 -0.20767,-0.673077 -0.431693,-0.673077 -0.224023,0 -0.28382,0.199819 -0.132881,0.444042 0.17003,0.275116 0.105506,0.339639 -0.169609,0.169608 C 29.94846,49.153519 29.8593,47.7311 30.294351,47.071727 c 0.171943,-0.2606 0.583732,-0.308827 1.051803,-0.123185 0.652104,0.258631 0.666745,0.3092 0.09615,0.332116 -0.925232,0.03715 -0.855205,0.796265 0.07345,0.796265 0.410592,0 0.870026,0.199819 1.020965,0.444042 0.170742,0.276266 0.105429,0.339593 -0.172863,0.167597 -0.269064,-0.166289 -0.589539,0.07823 -0.804277,0.613653 -0.266905,0.665493 -0.363135,0.720254 -0.381363,0.217016 z m 19.694479,0.214234 c 0.374219,-0.09752 0.89345,-0.0911 1.153846,0.01427 0.260396,0.105357 -0.04578,0.185142 -0.680396,0.177303 -0.634616,-0.0078 -0.847669,-0.09404 -0.47345,-0.191553 z m 15.113561,-0.389953 c -0.208723,-0.548154 -0.164546,-0.592331 0.215308,-0.215308 0.262854,0.2609 0.381027,0.571246 0.262608,0.689665 -0.118419,0.118419 -0.333481,-0.09504 -0.477916,-0.474357 z m -2.494361,0.0061 c -0.04731,-0.713689 0.756677,-1.028235 1.253146,-0.490273 0.348996,0.378161 0.304846,0.434696 -0.200969,0.257327 -0.356527,-0.125023 -0.732285,-0.02069 -0.835019,0.231854 -0.144008,0.353988 -0.19375,0.354238 -0.217158,0.0012 z M 35.769231,48.95735 c 0,-0.220892 0.302884,-0.639162 0.673077,-0.929488 0.622598,-0.488274 0.63076,-0.470174 0.108834,0.241369 -0.310334,0.423077 -0.613219,0.841346 -0.673077,0.929488 -0.05986,0.08814 -0.108834,-0.02048 -0.108834,-0.241369 z m 12.596154,0.01869 c 0.264423,-0.106696 0.697115,-0.106696 0.961538,0 0.264423,0.106696 0.04808,0.193996 -0.480769,0.193996 -0.528846,0 -0.745192,-0.0873 -0.480769,-0.193996 z m 3.461538,-0.384615 c 0.264423,-0.106696 0.697115,-0.106696 0.961539,0 0.264423,0.106696 0.04808,0.193996 -0.48077,0.193996 -0.528846,0 -0.745192,-0.0873 -0.480769,-0.193996 z m 11.970169,-1.187581 c -0.478411,-0.610023 -0.464807,-0.623627 0.145216,-0.145215 0.640673,0.50245 0.844415,0.818292 0.527861,0.818292 -0.07986,0 -0.38275,-0.302885 -0.673077,-0.673077 z M 63.445085,45.28846 c -1.157785,-1.456874 -0.7965,-1.431493 0.769557,0.05406 0.476781,0.452273 0.921789,1.580554 0.623389,1.580554 -0.05165,0 -0.678473,-0.735577 -1.392946,-1.634614 z m -7.098931,0.97468 c 0.423077,-0.10235 1.201923,-0.558234 1.730769,-1.013077 l 0.961539,-0.826988 -0.932427,1.057692 c -0.512839,0.581731 -1.291685,1.037616 -1.73077,1.013077 -0.773642,-0.04323 -0.774542,-0.05037 -0.02911,-0.230704 z m -9.967612,-0.612015 c 0.37302,-0.20875 0.93742,-0.20875 1.40525,0 C 48.428677,45.938885 48.319469,46 47.160396,46 46.117777,46 45.916015,45.90997 46.378542,45.651127 Z m 5.92915,0.146304 c 0,-0.196027 -0.302884,-0.435566 -0.673077,-0.532304 -0.419042,-0.109508 -0.278434,-0.192735 0.372547,-0.220512 0.781215,-0.03335 0.989638,0.10127 0.824234,0.532308 -0.248084,0.646492 -0.523704,0.762542 -0.523704,0.220508 z M 40.192308,45.384615 c -0.627081,-0.269465 -0.649043,-0.335546 -0.118854,-0.35758 0.357708,-0.01488 0.757346,0.146042 0.888084,0.35758 0.273331,0.442262 0.259966,0.442262 -0.76923,0 z m 15.035761,0.05786 c -0.132834,-0.214931 0.110916,-0.281815 0.58,-0.159146 0.468827,0.1226 0.966646,-0.01381 1.183658,-0.324331 0.311242,-0.445369 0.348242,-0.438438 0.218965,0.041 -0.179588,0.666031 -1.642657,0.992554 -1.982623,0.442477 z m 6.166162,0.01992 c -0.104296,-0.168754 -0.05596,-0.5231 0.107404,-0.787435 0.229038,-0.370592 0.411773,-0.342361 0.798253,0.123323 0.429689,0.517739 0.402116,0.5659 -0.193196,0.337458 -0.477834,-0.183361 -0.60768,-0.126127 -0.416319,0.183504 0.152958,0.247488 0.191562,0.449977 0.08579,0.449977 -0.105769,0 -0.277638,-0.138073 -0.381934,-0.306827 z M 32.195119,44.619708 c 0.110015,-0.4207 0.361831,-0.664904 0.559592,-0.542681 0.212176,0.131131 0.174947,0.444673 -0.09082,0.764904 -0.606705,0.731034 -0.705772,0.684069 -0.468771,-0.222223 z m 28.189496,0.01838 c 0,-0.199054 0.171097,-0.467662 0.380212,-0.5969 0.218023,-0.134747 0.2825,0.01965 0.151158,0.361915 -0.255689,0.666315 -0.53137,0.788227 -0.53137,0.234985 z M 45.677562,44.343362 c 0.478426,-0.092 1.170734,-0.0885 1.538461,0.0078 0.367727,0.09626 -0.02373,0.171538 -0.869869,0.167269 C 45.5,44.514131 45.199135,44.435391 45.677562,44.3434 Z m -11.974339,-0.60585 c -0.636608,-0.465497 -0.63353,-0.49635 0.05469,-0.548193 0.401095,-0.03023 0.729264,0.191754 0.729264,0.493258 0,0.663081 0.04356,0.660027 -0.783957,0.05494 z m 22.642931,0.108642 -1.923077,-0.263766 1.730769,-0.05453 c 0.951923,-0.03 1.990385,0.113238 2.307692,0.3183 0.317308,0.205061 0.403847,0.348296 0.192308,0.3183 -0.211538,-0.03 -1.25,-0.173227 -2.307692,-0.3183 z m 6.297092,-0.673077 c -0.478411,-0.610023 -0.464808,-0.623627 0.145216,-0.145215 0.640673,0.50245 0.844415,0.818292 0.527861,0.818292 -0.07986,0 -0.38275,-0.302885 -0.673077,-0.673077 z m -18.244281,-0.008 c 0.131277,-0.131273 0.50915,-0.278377 0.83972,-0.326896 0.330565,-0.04852 0.493623,0.01919 0.36235,0.150473 -0.131277,0.131273 -0.50915,0.278377 -0.83972,0.326896 -0.330565,0.04852 -0.493623,-0.01919 -0.36235,-0.150473 z M 31.538462,42.692308 c -0.346651,-0.224023 -0.39409,-0.375189 -0.118853,-0.378727 0.251939,-0.0031 0.565038,0.167188 0.695776,0.378727 0.295117,0.477511 0.16197,0.477511 -0.576923,0 z m 2.58017,-0.673077 c 0.29231,-0.792262 0.917676,-1.272958 1.326976,-1.019996 0.159515,0.09858 0.186962,0.44783 0.06099,0.7761 -0.185121,0.482419 -0.291386,0.498492 -0.554236,0.08384 -0.249045,-0.392881 -0.32658,-0.355396 -0.331091,0.160058 -0.0032,0.370192 -0.173534,0.673077 -0.378434,0.673077 -0.204899,0 -0.260793,-0.302885 -0.124208,-0.673077 z m 24.47111,-0.656158 c 0,-0.308004 0.147054,-0.469119 0.326789,-0.358038 0.179731,0.11108 0.227211,0.36308 0.105504,0.560003 -0.311008,0.503224 -0.432293,0.446562 -0.432293,-0.201965 z M 46.228827,39.807692 c 0.0078,-0.634615 0.09404,-0.847669 0.191554,-0.47345 0.09752,0.37422 0.0911,0.89345 -0.01423,1.153846 -0.105358,0.260397 -0.185142,-0.04578 -0.177304,-0.680396 z m 11.1059,-0.865384 c 0.01485,-0.581731 0.158865,-1.394578 0.319996,-1.806326 0.275769,-0.70469 0.306569,-0.696623 0.524677,0.137431 C 58.399962,38.11684 57.9373,40 57.509519,40 57.398515,40 57.319858,39.524038 57.334727,38.942308 Z M 46.661565,36.153846 c 0,-1.375 0.06981,-1.9375 0.155127,-1.25 0.08532,0.6875 0.08532,1.8125 0,2.5 -0.08532,0.6875 -0.155127,0.125 -0.155127,-1.25 z m 10.76742,-1.508335 c 0.03906,-0.512277 0.33063,-1.001415 0.647938,-1.086974 0.381192,-0.102785 0.428912,-0.04776 0.140646,0.162182 -0.23995,0.174758 -0.531523,0.663896 -0.647938,1.086973 -0.1669,0.60654 -0.196646,0.572239 -0.140646,-0.162181 z m 1.062919,0.13013 c 0.01846,-0.448055 0.109592,-0.539192 0.232369,-0.232372 0.111104,0.277644 0.09744,0.609375 -0.03035,0.73718 -0.127808,0.127804 -0.218708,-0.09936 -0.202008,-0.504808 z M 46.923077,32.669609 c 0,-0.224023 0.173077,-0.300347 0.384615,-0.169609 0.211539,0.130738 0.384616,0.314029 0.384616,0.407314 0,0.09329 -0.173077,0.169609 -0.384616,0.169609 -0.211538,0 -0.384615,-0.183291 -0.384615,-0.407314 z m 11.295315,-0.163405 c -0.117719,-0.306763 -0.12483,-0.779807 -0.01581,-1.051208 0.109023,-0.271402 0.211888,-0.08284 0.228588,0.419021 0.0255,0.766422 0.122712,0.835839 0.607289,0.433675 0.332534,-0.27598 0.576923,-0.31336 0.576923,-0.08824 0,0.649932 -1.165804,0.889232 -1.396993,0.286756 z m -3.627738,-0.559703 c 0.479846,-0.303633 0.479846,-0.441437 0,-1.051803 -0.505527,-0.643033 -0.495312,-0.657781 0.120884,-0.174527 0.370193,0.290325 0.673077,0.766286 0.673077,1.057692 0,0.291406 -0.302884,0.527179 -0.673077,0.52394 -0.552761,-0.0048 -0.574369,-0.06835 -0.120884,-0.355302 z m -1.09875,-0.632398 c 0.01846,-0.448055 0.109592,-0.539193 0.232369,-0.232372 0.111104,0.277644 0.09744,0.609375 -0.03035,0.737179 -0.127808,0.127805 -0.218708,-0.09936 -0.202008,-0.504807 z m 4.779388,-2.07395 c -0.13825,-0.629454 -0.140046,-1.324585 -0.004,-1.544735 0.29975,-0.485006 0.965766,-0.136995 0.957573,0.500358 -0.0035,0.281847 -0.162661,0.236123 -0.413392,-0.118853 -0.303238,-0.429306 -0.346477,-0.207882 -0.168992,0.865385 0.282769,1.709923 -0.0095,1.944469 -0.371204,0.297845 z m 1.344093,-1.26135 c 0,-0.105769 0.244207,-0.394981 0.54268,-0.642693 0.418112,-0.347 0.608843,-0.335739 0.830897,0.04906 0.158515,0.274695 0.14658,0.371139 -0.02654,0.214321 -0.173104,-0.156819 -0.547008,-0.09236 -0.830892,0.143248 -0.283877,0.235604 -0.516146,0.341834 -0.516145,0.236064 z M 51.38965,25.698854 c 0.111081,-0.179732 0.363081,-0.22721 0.560004,-0.105506 0.503223,0.31101 0.446561,0.432293 -0.201966,0.432293 -0.308003,0 -0.469119,-0.147054 -0.358038,-0.326787 z m 3.514196,0.200269 c 0.264423,-0.106697 0.480769,-0.362863 0.480769,-0.569258 0,-0.206394 -0.173077,-0.268295 -0.384615,-0.137557 -0.62605,0.386919 -0.438373,-0.05451 0.266138,-0.625983 0.442177,-0.358675 0.558177,-0.37377 0.361916,-0.04709 C 55.469192,24.783654 55.522508,25 55.746531,25 c 0.224023,0 0.407315,-0.201923 0.407315,-0.448718 0,-0.246795 0.115762,-0.332956 0.25725,-0.191469 0.141489,0.141488 0.556996,-0.01402 0.923354,-0.345567 0.368538,-0.333524 0.765019,-0.44277 0.887527,-0.24455 0.121781,0.197047 -0.12065,0.667839 -0.538739,1.046204 -0.418088,0.378365 -0.760161,0.554668 -0.760161,0.391784 0,-0.162884 -0.426604,-0.01663 -0.948008,0.325004 -0.521404,0.341637 -1.083904,0.607494 -1.25,0.590794 -0.166096,-0.0167 -0.08565,-0.117662 0.178777,-0.224359 z m 2.837523,-1.5722 C 58.219781,23.716902 58.206177,23.703298 57.596154,24.18171 56.955481,24.684159 56.751738,25 57.068292,25 c 0.07987,0 0.38275,-0.302885 0.673077,-0.673077 z m 3.625089,1.475158 c -0.123839,-0.200372 -0.06122,-0.465634 0.139154,-0.589471 0.200373,-0.123837 0.465634,-0.06122 0.589469,0.139155 0.123838,0.200372 0.06122,0.465634 -0.139154,0.589471 -0.200373,0.123837 -0.465635,0.06122 -0.589469,-0.139155 z m 1.0978,-1.40507 c 0.05404,-0.368191 0.46625,-0.967425 0.916027,-1.331631 0.449773,-0.364207 0.695327,-0.797967 0.545669,-0.963912 -0.149662,-0.165945 -0.02954,-0.161012 0.266927,0.01096 0.450534,0.261343 0.435731,0.388218 -0.09018,0.77277 -0.346066,0.253049 -0.5443,0.544999 -0.440523,0.648777 0.103781,0.103778 -0.145404,0.491039 -0.553743,0.86058 -0.7043,0.637381 -0.737388,0.637508 -0.64418,0.0025 z M 50.217035,23.958895 c -0.208723,-0.548153 -0.164547,-0.592331 0.215307,-0.215305 0.262854,0.260897 0.381027,0.571246 0.262608,0.689664 -0.118419,0.118419 -0.333481,-0.09504 -0.477915,-0.474359 z m 8.372707,-1.127701 c 0,-0.644392 4.078073,-5.291584 4.379254,-4.990404 0.325766,0.325765 0.106996,0.81309 -0.372842,0.830539 -0.264423,0.0096 -0.433212,0.238826 -0.375085,0.509357 0.05812,0.270532 -0.04855,0.396554 -0.237061,0.280049 -0.188508,-0.116505 -0.652312,0.130246 -1.030677,0.548335 -0.378366,0.418088 -0.531304,0.765919 -0.339866,0.772957 0.191443,0.007 -0.034,0.331705 -0.500957,0.721483 -0.466966,0.389779 -0.765666,0.79205 -0.663781,0.893935 0.101885,0.101886 -0.0497,0.38024 -0.336869,0.618564 -0.402908,0.334384 -0.522116,0.292188 -0.522116,-0.184815 z m 5.868354,-1.23607 c -0.111477,-0.180374 0.02496,-0.639286 0.303208,-1.019804 0.396254,-0.541912 0.573173,-0.58299 0.816338,-0.189544 0.205193,0.332009 0.159896,0.409266 -0.1336,0.227875 -0.396511,-0.245057 -0.616915,0.214566 -0.489588,1.020964 0.06158,0.390046 -0.246016,0.365572 -0.496358,-0.03949 z M 65.6154,19.67764 c -0.122273,-0.197841 0.02,-0.560804 0.316131,-0.806583 0.318427,-0.264271 0.629288,-0.299886 0.760761,-0.08716 0.122273,0.197842 -0.02,0.560804 -0.31613,0.806583 -0.318427,0.264272 -0.629289,0.299886 -0.760762,0.08716 z m 1.456112,-1.763693 c 0.124069,-0.845335 0.860265,-1.536884 1.145238,-1.075785 0.124658,0.201699 -0.102304,0.664423 -0.504358,1.028276 -0.643184,0.582075 -0.720177,0.587783 -0.64088,0.04751 z m -3.42062,-0.259528 c -0.171973,-0.296469 -0.179146,-0.418824 -0.01592,-0.271899 0.163212,0.146924 0.731727,-0.249809 1.263369,-0.881629 0.531643,-0.63182 1.05897,-1.056417 1.171835,-0.943549 0.112869,0.112868 0.480758,-0.0066 0.817527,-0.265589 0.393773,-0.302771 0.355742,-0.169756 -0.106562,0.372687 -0.39538,0.46392 -0.914611,0.807091 -1.153846,0.762602 -0.239246,-0.04449 -0.377292,0.178727 -0.30678,0.496035 0.07052,0.317308 0.0012,0.449806 -0.154277,0.29444 -0.155366,-0.155366 -0.489523,6.54e-4 -0.742573,0.346727 -0.38455,0.525905 -0.511427,0.54071 -0.77277,0.09018 z m 4.684285,-1.393869 c -0.137381,-0.222288 0.0079,-0.61804 0.322904,-0.879449 0.314977,-0.261409 0.57795,-0.324289 0.584384,-0.139734 0.0064,0.184556 0.186923,0.03479 0.401089,-0.332804 0.553373,-0.949824 1.766704,-1.558305 1.766704,-0.885996 0,0.303338 -0.239623,0.427527 -0.575916,0.298479 -0.415111,-0.159293 -0.487388,-0.06851 -0.25885,0.325131 0.174385,0.300372 0.184977,0.427367 0.02354,0.282212 -0.161443,-0.145155 -0.68065,0.186136 -1.153796,0.736202 -0.517212,0.601291 -0.959877,0.838948 -1.110054,0.595959 z m -0.01765,-2.849438 c 0.567015,-0.591837 1.190546,-0.977424 1.385623,-0.85686 0.469042,0.289883 -1.091538,1.932928 -1.835915,1.932928 -0.410485,0 -0.278527,-0.315346 0.450292,-1.076068 z m 0.720939,0.05043 c 0.38288,-0.423076 0.609607,-0.76923 0.503838,-0.76923 -0.105769,0 -0.505573,0.346154 -0.888454,0.76923 -0.382881,0.423077 -0.609608,0.769231 -0.503838,0.769231 0.105769,0 0.505573,-0.346154 0.888454,-0.769231 z m 1.858973,-1.329235 c 0,-0.308002 0.147053,-0.46912 0.326788,-0.358039 0.179731,0.111081 0.227212,0.363083 0.105504,0.560004 -0.311008,0.503224 -0.432292,0.446561 -0.432292,-0.201965 z"
         id="path528" />
      <path
         style="fill:#606060;fill-opacity:1;stroke-width:0.384615"
         d="m 36.540372,89.134615 c 0.001,-0.264423 0.451846,-1 1.001768,-1.634615 0.952814,-1.099558 0.970822,-1.104719 0.382705,-0.109685 -0.339434,0.574289 -0.617153,1.309866 -0.617153,1.634616 0,0.32475 -0.173077,0.590454 -0.384615,0.590454 -0.211539,0 -0.383756,-0.216347 -0.382705,-0.48077 z m -8.339437,-0.893511 c 1.447846,-0.983839 2.373496,-1.17515 2.748677,-0.568092 0.311189,0.503511 -1.238349,1.272676 -2.816106,1.397861 l -1.30621,0.103642 z m 3.337527,0.60505 c 0.317307,-0.205062 0.836538,-0.372835 1.153846,-0.372835 0.51282,0 0.51282,0.04142 0,0.372835 -0.317308,0.205061 -0.836539,0.372834 -1.153846,0.372834 -0.512821,0 -0.512821,-0.04142 0,-0.372834 z m 11.600015,-0.654958 -0.06155,-1.231877 -2.019231,0.232966 c -1.110577,0.128134 -2.162215,0.422865 -2.336973,0.654957 -0.204111,0.271077 -0.262204,0.215673 -0.162442,-0.154934 0.09719,-0.361023 0.791823,-0.648889 1.856204,-0.769231 1.418169,-0.160342 1.6872,-0.320173 1.618461,-0.961539 -0.04534,-0.423076 -0.200696,-2.370192 -0.34523,-4.326923 -0.144535,-1.95673 -0.406035,-3.557692 -0.581116,-3.557692 -0.175081,0 -0.145127,-0.455554 0.06657,-1.012338 0.211688,-0.556789 0.2956,-1.29367 0.186465,-1.63752 -0.12685,-0.399673 0.2784,-1.005646 1.123504,-1.679969 0.727057,-0.580134 1.400615,-1.054788 1.496792,-1.054788 0.09617,0 0.538115,0.615661 0.982085,1.368138 0.838142,1.420546 1.098504,3.08805 0.416334,2.666446 -0.214988,-0.132869 -0.289361,-0.405857 -0.165273,-0.606638 0.124089,-0.200777 -0.156454,-0.98325 -0.623427,-1.738827 l -0.849038,-1.373777 -0.981581,0.981581 c -0.965842,0.965842 -0.969969,0.994415 -0.25725,1.781957 0.697827,0.771093 0.698231,0.790362 0.011,0.526643 -0.606927,-0.2329 -0.676065,-0.134966 -0.463477,0.656527 0.137423,0.511642 0.460108,2.795823 0.717081,5.075961 0.311808,2.766685 0.611754,4.090246 0.901711,3.978977 0.238966,-0.0917 0.434485,0.07639 0.434485,0.373527 0,0.297139 -0.133265,0.540254 -0.296146,0.540254 -0.162877,0 -0.36595,0.5625 -0.451265,1.25 l -0.155127,1.25 -0.06155,-1.231881 z m -0.948865,-6.933877 c -0.09752,-0.374219 -0.183716,-0.161165 -0.191554,0.47345 -0.0078,0.634616 0.07195,0.940793 0.177304,0.680396 0.105353,-0.260396 0.111765,-0.779627 0.01423,-1.153846 z m 5.056119,7.115616 c -0.379943,-0.271939 -0.330058,-0.308573 0.190254,-0.139723 0.479815,0.155703 0.633557,0.0751 0.481015,-0.252181 -0.123308,-0.264566 -0.331035,-0.783916 -0.461612,-1.154108 -0.130576,-0.370192 -0.390303,-0.673077 -0.577169,-0.673077 -0.186865,0 -0.339757,-0.254184 -0.339757,-0.564854 0,-0.310665 -0.216347,-0.481596 -0.48077,-0.379838 -0.376804,0.145004 -0.426273,-0.834881 -0.228754,-4.531304 0.138612,-2.593969 0.269485,-4.80285 0.290831,-4.908619 0.02135,-0.105769 0.269562,0.249846 0.551585,0.790261 0.583361,1.117835 1.226723,5.8651 0.680908,5.024304 -0.537024,-0.82725 -0.926216,0.843342 -0.619458,2.659012 0.224323,1.327757 0.345584,1.470369 0.967319,1.137627 1.077615,-0.576723 1.386923,-0.45525 0.546465,0.214611 -0.70305,0.560346 -0.668084,0.583039 0.599566,0.389142 0.740384,-0.113246 1.128731,-0.106619 0.862988,0.01473 -0.265742,0.121346 -0.373873,0.397469 -0.240296,0.6136 0.156473,0.253181 -0.08211,0.291685 -0.670681,0.108246 l -0.91355,-0.284727 0.87252,0.724289 0.872519,0.724292 -0.934481,0.428446 c -0.605958,0.277823 -1.115519,0.298873 -1.449442,0.05987 z m 11.221696,-0.561773 c 0.01173,-1.386512 0.499765,-1.652693 1.840019,-1.003589 0.688962,0.333673 1.158366,0.700973 1.043119,0.816219 -0.115246,0.11525 -0.414346,0.0047 -0.664669,-0.245588 -0.627531,-0.627531 -1.455127,-0.571169 -1.455127,0.0991 0,0.304823 -0.173077,0.661192 -0.384615,0.791931 -0.211539,0.130738 -0.381966,-0.07539 -0.378727,-0.458069 z m 6.340265,0.265761 c 0.130739,-0.211538 0.410781,-0.384615 0.62232,-0.384615 0.211538,0 0.27765,0.173077 0.146911,0.384615 -0.130738,0.211539 -0.410781,0.384615 -0.622319,0.384615 -0.211539,0 -0.27765,-0.173076 -0.146912,-0.384615 z M 45.769231,87.692308 c -0.34665,-0.224023 -0.394089,-0.375189 -0.118854,-0.378727 0.251938,-0.0031 0.565038,0.167188 0.695777,0.378727 0.295115,0.477511 0.161969,0.477511 -0.576923,0 z M 50.242112,87.4911 c -0.183404,-0.477946 -0.08474,-0.510865 0.535776,-0.178777 0.891562,0.477154 0.976074,0.7646 0.2248,0.7646 -0.294676,0 -0.636934,-0.263619 -0.760576,-0.585823 z m 5.697492,-0.159173 c 0.370819,-0.409746 0.560504,-0.928977 0.421527,-1.153846 -0.138973,-0.224866 -0.06939,-0.40885 0.154631,-0.40885 0.553711,0 0.516242,1.275688 -0.05422,1.846154 -0.771526,0.771527 -1.244311,0.514765 -0.521934,-0.283458 z m 6.175781,-0.793465 c 0.130738,-0.211539 0.31403,-0.384616 0.407315,-0.384616 0.09329,0 0.169608,0.173077 0.169608,0.384616 0,0.211538 -0.183293,0.384615 -0.407316,0.384615 -0.224023,0 -0.300346,-0.173077 -0.169607,-0.384615 z M 50.673077,85.514508 c 0.264423,-0.106696 0.697115,-0.106696 0.961538,0 0.264423,0.106696 0.04808,0.193996 -0.480769,0.193996 -0.528846,0 -0.745192,-0.0873 -0.480769,-0.193996 z M 35.288462,85.129892 c 0.264423,-0.106696 0.697115,-0.106696 0.961538,0 0.264423,0.106696 0.04808,0.193996 -0.480769,0.193996 -0.528846,0 -0.745193,-0.0873 -0.480769,-0.193996 z m 18.452961,-0.02285 c 0.682781,-0.08496 1.894319,-0.08636 2.692308,-0.0031 0.797984,0.08326 0.239346,0.152777 -1.241423,0.154485 -1.48077,0.0015 -2.13367,-0.06642 -1.450885,-0.151381 z m -1.9145,-1.130981 c 0.264423,-0.106696 0.697115,-0.106696 0.961539,0 0.264423,0.106697 0.04808,0.193997 -0.48077,0.193997 -0.528846,0 -0.745192,-0.0873 -0.480769,-0.193997 z m 2.716346,-0.392627 c 0.277643,-0.111103 0.609373,-0.09744 0.737181,0.03035 0.127804,0.127803 -0.09936,0.218707 -0.504808,0.202007 -0.448057,-0.01846 -0.539192,-0.109592 -0.232373,-0.232369 z m -14.835184,-6.3719 c -0.212358,-0.264423 -0.842266,-1.432692 -1.399794,-2.596153 -0.557529,-1.163462 -0.728552,-1.723754 -0.380053,-1.245097 0.580631,0.797485 0.67305,0.816389 1.104774,0.22597 0.637938,-0.872435 1.750473,-0.39765 1.683842,0.718596 l -0.05238,0.877454 -0.166681,-0.865385 c -0.09168,-0.475961 -0.409384,-0.865385 -0.706019,-0.865385 -0.674669,0 -0.519531,2.776958 0.203831,3.648554 0.265757,0.32022 0.396657,0.582216 0.290888,0.582216 -0.105769,0 -0.366054,-0.216346 -0.578411,-0.48077 z M 46.969923,75.3167 c -0.457123,-0.731969 -0.43535,-0.9011 0.1733,-1.346154 1.036827,-0.75815 1.529139,-0.6255 2.03635,0.548685 l 0.456896,1.057692 -0.699427,-0.884146 C 48.467558,74.0993 48.017,73.893292 47.566546,74.066146 c -0.616208,0.236462 -0.62205,0.332331 -0.07148,1.172608 0.329773,0.5033 0.464158,0.915092 0.298627,0.915092 -0.16553,0 -0.536227,-0.376715 -0.823769,-0.837146 z m 3.876231,0.375608 c -0.707369,-0.70737 -0.549208,-1.766493 0.30425,-2.03737 0.850358,-0.269892 1.541904,0.01965 1.541904,0.645624 0,0.252923 -0.226389,0.221126 -0.593223,-0.08332 -0.870431,-0.722396 -1.53967,0.05667 -0.967339,1.126081 0.488942,0.913596 0.394466,1.029042 -0.285592,0.348985 z M 31.649903,74.615385 c -0.110636,-0.423077 -0.440587,-0.769231 -0.733223,-0.769231 -0.292635,0 -0.532065,-0.232792 -0.532065,-0.517312 0,-0.284523 -0.362185,-0.845084 -0.804855,-1.245696 C 28.343341,70.9642 27.919017,70 28.663013,70 c 0.337235,0 0.521945,0.147581 0.410468,0.327954 -0.254181,0.411273 0.778859,1.870988 1.098141,1.551708 0.128983,-0.128985 0.06088,-0.691212 -0.151342,-1.249397 -0.511602,-1.345615 0.105033,-1.309388 0.728682,0.04281 0.586018,1.270608 1.5165,4.711538 1.274074,4.711538 -0.09459,0 -0.262496,-0.346153 -0.373133,-0.76923 z m 21.341439,0.1705 c 0.470146,-0.329304 0.854812,-0.836873 0.854812,-1.127931 0,-0.630046 -0.616889,-0.834369 -3.562777,-1.180054 -1.219139,-0.143062 -2.322546,-0.431504 -2.452008,-0.640981 -0.1387,-0.224415 0.06088,-0.290727 0.48585,-0.161427 1.361631,0.414285 4.384912,0.391608 4.812612,-0.03608 0.314146,-0.314146 -0.179862,-0.547488 -1.858031,-0.87765 -1.609596,-0.316669 -2.438692,-0.695034 -2.802204,-1.278819 -0.455181,-0.731004 -0.447111,-0.771965 0.06821,-0.346246 0.695423,0.574504 4.011481,1.622488 5.152584,1.628385 0.443177,0.0023 1.100239,-0.321216 1.460135,-0.7189 0.621989,-0.687289 0.608246,-0.734635 -0.277777,-0.957012 -0.512677,-0.128673 -1.688969,-0.685242 -2.613981,-1.236815 -0.925015,-0.551573 -1.335688,-0.873335 -0.912611,-0.715031 5.109888,1.911988 5.062754,1.916827 6.374265,-0.65395 0.981404,-1.923715 0.938327,-2.239673 -0.316573,-2.321885 -0.581731,-0.03811 0.235023,-0.167919 1.815008,-0.288461 l 2.8727,-0.219169 0.688961,-2.115385 c 0.533389,-1.637719 0.653693,-1.811415 0.532785,-0.769231 -0.08589,0.740385 -0.280942,1.735577 -0.433438,2.211539 -0.257254,0.802915 -0.162104,0.865384 1.318119,0.865384 1.081611,0 1.653434,-0.185792 1.775627,-0.576923 0.09913,-0.317308 0.293561,-0.879808 0.432069,-1.25 0.236611,-0.632404 0.261823,-0.631019 0.417223,0.02288 0.09096,0.382777 -0.107746,1.378596 -0.441585,2.212934 -0.333834,0.834339 -0.719723,2.771162 -0.85753,4.304047 -0.3102,3.4505 -0.689858,4.530873 -1.571958,4.473219 -0.539192,-0.03523 -0.556865,-0.07855 -0.08412,-0.206143 0.424411,-0.114546 0.722788,-1.0244 1.025877,-3.12823 0.235065,-1.631685 0.36725,-3.026846 0.293734,-3.100358 -0.264827,-0.264827 -1.849857,3.234281 -1.934669,4.270969 -0.09122,1.115031 -0.786396,2.208377 -1.404138,2.208377 -0.200747,0 -0.09302,-0.271977 0.2394,-0.604396 0.332419,-0.332415 0.604396,-0.841435 0.604396,-1.131146 0,-1.009327 -0.652627,-0.918816 -1.484116,0.205834 -0.865427,1.17055 -3.034892,2.523524 -3.423423,2.134993 -0.121365,-0.121369 -0.02177,-0.220669 0.221296,-0.220669 0.243081,0 1.249154,-0.773424 2.23572,-1.718716 0.986561,-0.945296 1.968265,-1.610861 2.181561,-1.479034 0.22855,0.14125 0.267889,0.04563 0.09578,-0.232835 -0.168919,-0.273315 0.02896,-0.825331 0.469434,-1.309427 0.873523,-0.960077 1.76027,-2.562438 1.539962,-2.782742 -0.203396,-0.203396 -3.080065,1.761096 -3.605504,2.462223 -0.248385,0.331434 -1.313185,0.638419 -2.578308,0.743331 -1.488096,0.123403 -2.36655,0.412296 -2.838092,0.933342 -0.654792,0.723538 -0.653627,0.771011 0.02831,1.152634 0.574642,0.321585 0.610034,0.462116 0.184304,0.731808 -0.414366,0.262492 -0.383147,0.33505 0.146161,0.339681 0.370192,0.0031 0.673077,-0.253727 0.673077,-0.571035 0,-0.317307 0.173077,-0.576923 0.384615,-0.576923 0.47565,0 0.476324,0.09333 0.0095,1.321116 -0.240735,0.633184 -0.668785,0.986577 -1.194996,0.986577 -0.570781,0 -0.752635,0.175292 -0.598512,0.576923 0.121762,0.317307 0.05374,0.576923 -0.151157,0.576923 -0.204931,-2.3e-5 -0.372577,-0.20327 -0.372577,-0.451681 0,-0.248415 -0.400577,-0.07534 -0.890173,0.384615 -0.489597,0.45995 -1.047339,0.836273 -1.239427,0.836273 -0.192089,0 0.03542,-0.26943 0.505557,-0.59873 z m 1.624043,-2.862808 c 0.497188,-0.321308 0.487034,-0.37365 -0.07345,-0.378727 -0.357708,-0.0031 -0.757346,0.167188 -0.888085,0.378727 -0.300838,0.486769 0.208319,0.486769 0.961539,0 z m 5.732984,-4.873631 c 1.502789,-2.268796 1.510243,-2.818677 0.03823,-2.818677 -0.988731,0 -1.267427,0.245831 -1.967738,1.735673 -0.448724,0.95462 -0.968843,1.83022 -1.155816,1.945777 -0.709215,0.438316 -0.296534,0.933935 0.777646,0.933935 0.904393,0 1.344643,-0.342766 2.307693,-1.796708 z m 0.420862,1.027477 c 0,-0.211538 -0.173077,-0.384615 -0.384616,-0.384615 -0.211538,0 -0.384615,0.173077 -0.384615,0.384615 0,0.211539 0.173077,0.384615 0.384615,0.384615 0.211539,0 0.384616,-0.173076 0.384616,-0.384615 z m 2.700554,-2.166496 c 1.873792,-1.240015 1.931815,-1.679658 0.221688,-1.679658 -1.121908,0 -1.36875,0.17275 -1.730769,1.211239 -0.650681,1.866542 -0.61865,1.876484 1.509081,0.468419 z M 33.125,73.990385 c -0.253821,-0.557077 -0.373317,-1.101043 -0.265546,-1.208812 0.107771,-0.107773 0.378709,0.28475 0.602084,0.872273 0.527604,1.387704 0.262977,1.652331 -0.336538,0.336539 z m 2.259615,0.240384 c -0.317307,-0.205061 -0.403846,-0.372834 -0.192307,-0.372834 0.211538,0 0.64423,0.167773 0.961538,0.372834 0.317308,0.205062 0.403846,0.372835 0.192308,0.372835 -0.211539,0 -0.644231,-0.167773 -0.961539,-0.372835 z m 8.076923,-3.096473 c 0,-0.324184 3.02452,-0.930292 3.294581,-0.660227 0.0912,0.0912 -0.612765,0.343989 -1.564377,0.56175 -0.951611,0.217758 -1.730204,0.262073 -1.730204,0.09848 z m 24.117635,-7.48045 c 0.299473,-5.499331 0.141773,-10.190238 -0.394369,-11.730769 -0.110431,-0.317308 -0.357858,-1.096154 -0.549842,-1.730769 -0.209485,-0.692473 -0.649274,-1.198566 -1.09987,-1.265685 -0.412942,-0.06151 -0.918619,-0.489738 -1.123719,-0.951615 -0.2051,-0.461877 -1.097077,-1.363473 -1.982165,-2.003546 -0.885093,-0.640074 -1.558489,-1.336847 -1.496443,-1.548385 0.06205,-0.211539 -0.641669,-1.199315 -1.563823,-2.195062 -0.92215,-0.995746 -1.6705,-2.034207 -1.663004,-2.307692 0.0075,-0.273485 0.223839,-0.129254 0.48077,0.320515 0.256927,0.44977 0.980765,1.228616 1.608527,1.73077 0.627765,0.502154 2.05565,1.837411 3.173077,2.967234 C 64.166338,46.150158 65,46.749823 65,46.400262 c 0,-0.326043 -0.230396,-0.731216 -0.511988,-0.900381 -0.281593,-0.169166 -0.787558,-0.870073 -1.12437,-1.557573 -1.127234,-2.300935 0.245558,-1.396073 2.042293,1.346154 1.963207,2.996303 2.162738,3.379769 1.567038,3.011607 -0.587661,-0.363196 -0.556461,-0.186796 0.334719,1.892239 0.423077,0.987 0.769231,2.364204 0.769231,3.060454 0,0.69625 0.259615,2.001738 0.576923,2.901084 0.658558,1.86655 0.722877,2.443292 0.239135,2.144327 -0.523362,-0.323458 -0.851704,2.017465 -0.575262,4.101369 0.147508,1.111989 0.07731,2.220881 -0.172177,2.719735 -0.23168,0.463242 -0.505727,1.274954 -0.608996,1.8038 -0.103269,0.528846 -0.08409,-0.942308 0.04263,-3.269231 z m -5.279196,-18.85545 c -0.267585,-0.322419 -0.586646,-0.486084 -0.709031,-0.3637 -0.122384,0.122381 0.03208,0.383531 0.343269,0.580327 0.81422,0.514927 0.920608,0.451919 0.365762,-0.216627 z m -33.0384,21.066989 C 28.94619,65.3239 28.858611,65.3051 28.813619,65.769231 c -0.03076,0.317307 -0.199125,-0.115385 -0.374146,-0.961539 -0.438034,-2.117715 -0.438432,-5.100011 -7.3e-4,-5.370534 0.21265,-0.131427 0.288176,0.374588 0.183185,1.2273 -0.199076,1.616834 -0.319083,1.79473 1.615769,-2.395227 1.023103,-2.21555 1.202743,-1.848616 0.305844,0.624719 -0.33566,0.925635 -0.638545,3.022808 -0.673077,4.660381 -0.03453,1.637573 -0.09745,2.978919 -0.139827,2.980769 -0.04237,0.0019 -0.253457,-0.299523 -0.469074,-0.669715 z m 15.110561,-5.947804 c -0.102719,-0.166208 0.159389,-0.302196 0.582466,-0.302196 0.423077,0 0.853277,0.135988 0.955996,0.302196 0.102723,0.166211 -0.159385,0.3022 -0.582462,0.3022 -0.423076,0 -0.853276,-0.135989 -0.956,-0.3022 z m 3.187474,-0.236327 C 46.637915,58.662792 46.76615,58.454912 48.173077,58.68675 l 1.25,0.205981 -0.961539,-0.586585 c -1.076865,-0.656934 -0.372869,-0.840458 0.805289,-0.209927 0.964946,0.516427 0.592958,1.13455 -0.682773,1.13455 -0.832777,0 -0.911558,0.08962 -0.507131,0.576923 0.683069,0.82305 0.245085,0.716 -0.517311,-0.126438 z M 29.230769,57.53505 c 0,-0.146058 0.266689,-0.781277 0.592641,-1.4116 0.325953,-0.630323 0.501302,-1.293831 0.389666,-1.474462 -0.218341,-0.353284 2.719801,-3.387292 3.075387,-3.175734 0.117497,0.06991 0.652215,-0.160269 1.188262,-0.5115 1.501224,-0.983639 1.38297,-0.551185 -0.373596,1.366231 -0.881721,0.962461 -2.338706,2.587538 -3.237744,3.611277 -0.899039,1.023742 -1.634616,1.741846 -1.634616,1.595788 z m 21.538462,-1.506469 c 0,-0.280431 0.432692,-0.916369 0.961538,-1.413196 1.122146,-1.054204 1.230135,-0.765689 0.301689,0.806042 -0.698912,1.183165 -1.263227,1.454396 -1.263227,0.607154 z m -8.550804,-2.076554 c 0.691288,-0.0856 1.72975,-0.08384 2.307692,0.0039 0.577943,0.08776 0.01235,0.157796 -1.256888,0.155638 C 42,54.109281 41.527138,54.037627 42.218427,53.952027 Z M 53.528581,52.18675 c -0.45995,-0.489596 -0.836273,-1.008827 -0.836273,-1.153846 0,-0.145019 0.822115,-0.235973 1.826923,-0.202119 1.404219,0.04731 1.537704,0.09744 0.576923,0.216677 -1.290335,0.160126 -1.593462,0.762923 -0.788462,1.567923 0.253846,0.253846 0.370554,0.461538 0.25935,0.461538 -0.1112,0 -0.578507,-0.400577 -1.038461,-0.890173 z M 33.47377,50.950854 c 0.02075,-0.634231 1.117757,-1.872146 1.404735,-1.585169 0.149087,0.149088 -0.10874,0.650877 -0.57295,1.115084 -0.464209,0.464208 -0.838512,0.675746 -0.831785,0.470085 z m 4.699647,-2.313223 c 0.793083,-0.855073 1.441968,-1.752066 1.441968,-1.993312 0,-0.24125 0.348665,-0.5493 0.774815,-0.684554 1.2788,-0.405873 0.536692,-0.838111 -1.821581,-1.060973 -2.126893,-0.200996 -4.610027,-0.908665 -4.294735,-1.223957 0.08239,-0.08239 0.949161,-3.85e-4 1.926159,0.182061 1.605448,0.299931 5.248188,0.06373 9.241872,-0.599269 0.832335,-0.138173 1.506758,-0.06583 1.657312,0.177769 0.159515,0.2581 2.163461,0.410758 5.392015,0.410758 2.825985,0 5.421312,0.108658 5.767396,0.241465 0.55357,0.212423 0.526166,0.351185 -0.227896,1.153846 -0.715161,0.761254 -1.235096,0.912381 -3.138934,0.912381 -1.942746,0 -2.24637,-0.09233 -2.04337,-0.621338 0.207277,-0.54015 -7.69e-4,-0.585704 -1.593465,-0.348623 -1.007542,0.149996 -2.010777,0.4197 -2.229411,0.599338 -0.218631,0.179642 -0.631539,0.181985 -0.917566,0.0052 -0.786627,-0.486162 -5.044519,-0.06462 -6.569534,0.650408 -0.740385,0.347138 -2.124847,1.33368 -3.076585,2.192311 l -1.730428,1.561154 1.441968,-1.554677 z m 19.018348,-3.476385 c 0.08532,-0.259577 -0.299084,-0.351727 -1.023642,-0.245384 -0.63815,0.09366 -1.059169,0.333884 -0.9356,0.533826 0.291219,0.4712 1.781673,0.251777 1.959242,-0.288442 z m -9.975742,-0.810123 c -0.367727,-0.09627 -1.060035,-0.09976 -1.538461,-0.0078 -0.478427,0.092 -0.177562,0.170761 0.668592,0.175031 0.846154,0.0043 1.237596,-0.071 0.869869,-0.16727 z m -0.761896,5.223519 c 0.460723,-0.412811 7.569269,-1.059961 7.7875,-0.708957 0.111742,0.179719 0.630973,0.489715 1.153846,0.688877 0.663885,0.252873 -0.583127,0.347911 -4.133654,0.315034 -2.796384,-0.02588 -4.959846,-0.158623 -4.807692,-0.294954 z M 30.576923,49.230769 c -0.130738,-0.211538 -0.05441,-0.384615 0.169609,-0.384615 0.224023,0 0.407314,0.173077 0.407314,0.384615 0,0.211539 -0.07632,0.384616 -0.169609,0.384616 -0.09329,0 -0.276576,-0.173077 -0.407314,-0.384616 z m 0.847768,-5.778134 c -0.231483,-0.885193 -0.249263,-0.879312 1.103612,-0.36495 1.093549,0.415765 1.016511,0.832065 -0.187992,1.015888 -0.447694,0.06832 -0.791434,-0.176054 -0.91562,-0.650938 z M 35,42.891992 c 0,-0.579584 1.595781,-3.276607 1.938711,-3.276607 0.430753,0 -0.939278,2.889253 -1.548599,3.265834 C 35.17555,43.013823 35,43.018673 35,42.891992 Z m 10.012185,0.0732 c -0.0067,-0.167219 0.356688,-0.802961 0.80753,-1.412761 0.531747,-0.719227 0.753162,-1.4569 0.630258,-2.099812 -0.1042,-0.545096 -0.04796,-0.991085 0.124973,-0.991085 0.172939,0 0.374162,-1.254807 0.447166,-2.788461 0.100757,-2.116632 0.15115,-1.740498 0.209157,1.56116 0.04472,2.545417 -0.06921,4.259617 -0.274669,4.132636 -0.1931,-0.119346 -0.70685,0.259865 -1.141662,0.842685 -0.434811,0.582819 -0.796053,0.922857 -0.802753,0.755638 z M 33.89077,41.442308 c -0.02968,-0.703589 0.14853,-1.057693 0.532307,-1.057693 0.317308,0 0.576923,0.173077 0.576923,0.384616 0,0.211538 -0.160386,0.384615 -0.356414,0.384615 -0.196028,0 -0.435566,0.302885 -0.532307,0.673077 -0.108216,0.4141 -0.19306,0.266115 -0.220509,-0.384615 z m 23.894784,-5.314239 c -0.05448,-1.255053 0.05714,-2.281915 0.248061,-2.281915 0.513447,0 0.704639,2.969857 0.246289,3.825718 -0.315204,0.588573 -0.415358,0.275803 -0.49435,-1.543803 z m 2.284958,-2.365249 c -0.25032,-0.25032 -0.455127,-0.787858 -0.455127,-1.19453 0,-0.596622 -0.10592,-0.651495 -0.548523,-0.284168 -0.466066,0.386799 -0.542747,0.07426 -0.510093,-2.079009 0.02115,-1.393833 0.162085,-2.334168 0.313216,-2.089633 0.40308,0.6522 0.985092,0.15055 2.416969,-2.083248 0.702908,-1.096574 1.609554,-2.248149 2.014761,-2.559055 0.593693,-0.455523 0.575889,-0.380842 -0.0917,0.384616 -0.455646,0.522444 -1.374069,1.88274 -2.040942,3.02288 -1.182058,2.020933 -1.202635,2.136345 -0.819589,4.596746 0.428166,2.750188 0.4018,2.966178 -0.278976,2.285401 z M 47.561185,31.538462 c 0.115838,-0.740385 0.5198,-1.789294 0.897688,-2.33091 0.377892,-0.541616 0.883827,-1.926231 1.1243,-3.076923 0.240473,-1.150692 0.622039,-2.351783 0.847923,-2.669091 0.329369,-0.462679 0.358369,-0.424598 0.146442,0.192308 -0.145338,0.423077 -0.360869,1.787459 -0.478957,3.03196 -0.168396,1.774707 -0.368993,2.303077 -0.930081,2.449805 -0.393458,0.102891 -0.812369,0.642355 -0.930915,1.198809 -0.375904,1.764492 -0.913927,2.722215 -0.6764,1.204042 z m 6.284969,-0.224359 c 0,-0.679203 0.827984,-0.56092 1.065704,0.152243 0.08373,0.251202 -0.121793,0.456731 -0.456731,0.456731 -0.334935,0 -0.608973,-0.274039 -0.608973,-0.608974 z m -3.076923,-3.643932 c 0,-0.526844 1.823196,-3.817905 2.597857,-4.689402 0.329058,-0.370192 0.77692,-0.673077 0.99525,-0.673077 0.218331,0 -0.05883,0.475962 -0.615911,1.057693 -0.557085,0.58173 -1.376412,1.879807 -1.820727,2.884615 -0.790085,1.786748 -1.156469,2.236677 -1.156469,1.420171 z m 4.425211,-2.672529 c 0.384054,-0.424374 0.777635,-0.692231 0.874627,-0.595238 0.208319,0.208317 -0.888054,1.366827 -1.293515,1.366827 -0.153666,0 0.03485,-0.347215 0.418888,-0.771589 z m 2.535177,-1.151488 c 0.891862,-1.057692 1.693654,-1.923077 1.781766,-1.923077 0.299677,0 -2.778997,3.813303 -3.091973,3.829771 -0.171243,0.009 0.41835,-0.849002 1.310207,-1.906694 z M 64.653085,21.25 c 1.005196,-1.667067 4.55145,-6.25 4.836227,-6.25 0.105769,0 -0.6569,1.081731 -1.694816,2.403846 -1.037919,1.322116 -2.278477,3.052885 -2.756796,3.846154 -0.478319,0.793269 -0.956208,1.442308 -1.061977,1.442308 -0.105769,0 0.199042,-0.649039 0.677362,-1.442308 z m -3.499239,-1.387961 c 0.951923,-1.014362 2.076923,-2.027501 2.5,-2.251419 0.423077,-0.223918 0.682692,-0.330205 0.576923,-0.236193 -0.105769,0.09401 -1.230769,1.10715 -2.5,2.251419 l -2.307692,2.080488 z m 5.769231,-4.852683 c 2.401711,-2.28371 4.937315,-3.858111 6.153846,-3.821032 0.317308,0.0097 0.144231,0.199691 -0.384615,0.422266 -0.528846,0.222575 -1.394231,0.596076 -1.923077,0.830002 -0.528846,0.233926 -2.173077,1.442458 -3.653846,2.685626 l -2.692308,2.260307 z M 70,14.889943 c 0.968054,-1.046469 3.344542,-2.582131 3.995192,-2.581653 0.672358,5e-4 0.602289,0.11659 -0.406215,0.673077 -0.670292,0.369863 -1.795292,0.997375 -2.5,1.39447 C 70.384269,14.772932 69.894231,15.00428 70,14.889943 Z"
         id="path526" />
    </g>
  </g>
</svg>
