<?xml version="1.0" standalone="no"?>
<!DOCTYPE svg PUBLIC "-//W3C//DTD SVG 20010904//EN"
 "http://www.w3.org/TR/2001/REC-SVG-20010904/DTD/svg10.dtd">
<svg version="1.0" xmlns="http://www.w3.org/2000/svg"
 width="260.000000pt" height="260.000000pt" viewBox="0 0 260.000000 260.000000"
 preserveAspectRatio="xMidYMid meet">
<metadata>
Created by potrace 1.11, written by Peter Selinger 2001-2013
</metadata>
<g transform="translate(0.000000,260.000000) scale(0.100000,-0.100000)"
fill="#000000" stroke="none">
<path d="M1700 2590 c-9 -6 -10 -10 -3 -10 6 0 15 5 18 10 8 12 4 12 -15 0z"/>
<path d="M1728 2576 c-10 -7 -18 -17 -18 -21 0 -4 7 -2 15 5 8 6 19 9 24 5 7
-3 8 0 5 9 -3 9 -7 16 -8 16 0 0 -9 -7 -18 -14z"/>
<path d="M1289 2564 c-7 -8 -6 -14 2 -20 7 -4 9 -3 5 4 -3 6 -2 13 4 17 5 3
10 1 10 -4 0 -6 4 -11 8 -11 5 0 9 6 9 13 0 17 -24 18 -38 1z"/>
<path d="M1619 2573 c-1 -5 -1 -12 0 -17 1 -5 -5 -6 -14 -3 -8 4 -15 2 -15 -3
0 -5 -7 -6 -17 -3 -12 5 -14 3 -8 -8 6 -11 5 -11 -4 -3 -9 8 -23 9 -45 3 -17
-5 -42 -7 -54 -4 -12 3 -31 7 -43 10 -12 2 -28 -2 -36 -10 -16 -16 -33 -12
-33 8 0 7 4 6 10 -3 5 -8 10 -10 10 -4 0 20 -13 23 -40 9 -15 -8 -37 -11 -49
-8 -15 4 -20 1 -18 -8 2 -8 2 -11 0 -6 -3 4 -9 7 -14 7 -6 0 -8 -4 -5 -8 3 -5
-1 -9 -9 -9 -13 0 -13 3 0 17 8 9 15 20 15 25 0 4 -10 -3 -23 -17 -12 -13 -29
-22 -36 -20 -7 2 -17 -2 -22 -9 -6 -10 -9 -11 -9 -1 0 6 -4 12 -10 12 -5 0 -7
-8 -3 -17 6 -17 5 -17 -14 0 -16 14 -22 15 -26 5 -4 -9 -6 -7 -6 4 -1 10 -9
16 -20 15 -11 0 -17 -5 -15 -9 3 -4 1 -8 -5 -8 -5 0 -12 6 -14 13 -4 9 -6 9
-6 -1 -1 -7 -6 -10 -13 -6 -7 5 -9 2 -6 -7 4 -11 -8 -14 -63 -14 -41 1 -65 -3
-62 -9 4 -5 -3 -7 -14 -4 -14 4 -20 1 -19 -11 1 -20 -25 -21 -41 -1 -10 13
-11 12 -10 -5 1 -11 7 -24 12 -28 6 -5 -1 -5 -15 -1 -14 4 -28 11 -31 16 -3 5
-9 3 -12 -6 -4 -9 -10 -16 -14 -15 -4 1 -17 1 -28 0 -17 -1 -18 -3 -5 -11 13
-9 13 -10 0 -10 -9 0 -22 6 -29 13 -8 7 -11 7 -8 1 4 -7 -1 -18 -10 -25 -14
-12 -15 -11 -9 11 6 19 5 21 -3 10 -6 -8 -11 -10 -11 -4 0 6 -7 11 -16 11 -14
0 -15 -2 -2 -11 14 -10 22 -49 9 -42 -10 5 -40 -32 -33 -40 4 -4 2 -4 -5 0 -7
4 -9 14 -6 23 5 13 2 15 -15 11 -15 -4 -25 0 -32 10 -5 10 -10 13 -10 8 0 -5
8 -18 17 -29 18 -19 17 -20 -7 -6 -14 7 -28 12 -32 11 -5 -1 -8 7 -8 18 0 14
-5 18 -16 13 -13 -5 -13 -8 -2 -15 9 -7 6 -8 -11 -4 -35 7 -80 -20 -81 -48 0
-6 7 -1 16 10 14 18 15 18 4 -3 -6 -13 -15 -23 -20 -23 -6 0 -10 -5 -10 -11 0
-5 6 -7 13 -3 9 6 8 3 -1 -8 -7 -9 -26 -19 -41 -23 -15 -3 -39 -17 -54 -30
-14 -14 -31 -25 -36 -25 -12 0 -21 -28 -30 -96 -6 -44 -5 -54 8 -57 13 -4 13
-5 -1 -6 -23 -1 -23 -18 -1 -24 17 -4 17 -5 1 -6 -21 -1 -24 -27 -5 -34 7 -3
4 -6 -6 -6 -10 -1 -16 -5 -12 -11 3 -5 13 -7 23 -4 14 5 15 4 2 -5 -14 -10 -7
-16 13 -12 5 1 6 -3 2 -9 -5 -8 -11 -7 -21 1 -8 6 -17 9 -21 5 -4 -3 2 -13 13
-21 13 -10 14 -13 3 -10 -9 3 -16 0 -17 -7 0 -7 -3 -42 -7 -78 -3 -36 -7 -71
-7 -77 -2 -18 -15 -16 -22 4 -8 19 -21 9 -31 -24 -5 -18 -2 -23 12 -24 13 0
12 -3 -7 -10 -23 -9 -23 -12 -8 -23 15 -11 15 -13 -4 -25 -18 -11 -20 -11 -15
3 4 10 1 13 -8 10 -14 -6 -9 -34 6 -34 5 0 9 -9 9 -20 0 -11 -3 -19 -7 -19
-24 4 -25 -4 -4 -20 25 -19 22 -44 -4 -34 -11 4 -15 -3 -15 -25 0 -37 -13 -48
-31 -25 -12 15 -12 16 4 10 9 -3 17 -2 17 3 0 6 -7 10 -15 10 -8 0 -15 5 -15
11 0 5 4 8 9 5 5 -3 14 1 21 9 10 12 10 15 0 15 -9 0 -9 4 1 18 13 15 12 16
-3 4 -9 -8 -15 -19 -12 -26 3 -7 -1 -13 -9 -13 -8 0 -14 11 -14 28 0 16 5 25
12 23 6 -3 22 5 36 17 18 17 20 21 5 15 -10 -3 -24 -2 -31 4 -10 8 -15 6 -20
-10 -4 -11 -11 -17 -17 -14 -6 4 -8 2 -4 -4 3 -5 0 -13 -6 -15 -8 -3 -6 -6 5
-6 9 -1 17 -5 17 -11 0 -5 -8 -7 -18 -4 -13 5 -14 4 -3 -4 8 -6 10 -15 6 -22
-5 -8 -4 -11 2 -7 6 4 14 0 17 -9 4 -12 2 -15 -9 -10 -13 4 -14 2 -5 -14 6
-11 8 -20 4 -20 -3 0 4 -9 17 -19 13 -11 21 -23 16 -27 -4 -4 -13 0 -20 10
-12 16 -13 16 -14 -2 -1 -16 4 -19 23 -17 13 1 24 -2 24 -6 0 -8 -15 -13 -32
-10 -4 0 -5 -6 -2 -14 4 -8 10 -15 16 -15 5 0 6 4 3 10 -3 5 0 10 7 10 9 0 13
-14 12 -42 0 -24 5 -49 10 -57 9 -12 8 -13 -3 -6 -11 6 -13 4 -9 -7 5 -11 -1
-15 -22 -15 -23 0 -27 4 -24 20 2 11 -1 27 -6 36 -7 12 -8 8 -6 -14 2 -16 -2
-33 -8 -37 -8 -6 -7 -8 2 -8 6 0 12 -5 12 -11 0 -5 -4 -8 -9 -4 -5 3 -12 2
-15 -3 -2 -4 4 -8 14 -9 10 -1 21 5 24 13 3 8 11 14 17 14 8 0 7 -5 -2 -17
-12 -14 -12 -16 0 -9 9 6 12 4 9 -5 -3 -8 -18 -14 -34 -14 -28 -1 -30 -4 -25
-46 0 -5 6 -7 12 -4 6 4 8 14 5 22 -4 9 -1 13 6 11 24 -8 18 -28 -14 -48 -18
-11 -32 -23 -30 -27 18 -42 84 7 77 56 -2 18 2 35 11 42 17 14 17 9 4 -25 -7
-21 -6 -26 5 -26 24 0 17 -17 -16 -40 -17 -13 -28 -28 -25 -36 3 -7 1 -16 -4
-19 -4 -3 -11 1 -13 7 -4 10 -6 10 -6 1 -1 -7 -6 -13 -11 -13 -6 0 -9 5 -8 11
2 6 -4 14 -12 16 -9 3 -11 1 -5 -4 14 -11 19 -47 6 -38 -7 3 -8 0 -5 -9 5 -13
9 -12 25 7 10 12 18 17 19 10 0 -6 -5 -15 -10 -18 -8 -5 -7 -11 1 -21 6 -7 9
-20 5 -29 -8 -22 29 -39 45 -19 18 22 29 -2 16 -39 -8 -25 -7 -32 7 -43 11 -7
15 -18 10 -25 -4 -8 -3 -10 4 -5 11 6 17 -6 13 -27 -1 -4 7 -3 18 3 30 15 36
12 17 -9 -13 -14 -14 -21 -5 -27 8 -4 10 -3 5 4 -8 13 3 16 20 4 17 -11 36
-51 29 -62 -3 -5 -1 -11 5 -15 6 -4 8 -11 5 -16 -4 -5 -1 -9 5 -9 7 0 9 -7 6
-17 -4 -10 -4 -14 0 -10 5 4 14 -3 21 -15 l14 -23 -6 23 c-4 12 -2 22 3 22 10
0 32 -67 32 -99 0 -13 7 -21 18 -22 9 0 12 -3 6 -5 -13 -5 -8 -72 7 -90 5 -6
6 -13 3 -16 -2 -3 2 -8 11 -11 8 -4 15 -2 15 2 0 5 7 12 16 15 14 5 15 4 5 -7
-9 -11 -8 -17 4 -27 8 -7 13 -16 10 -20 -8 -12 6 -40 19 -40 6 0 17 -9 24 -21
9 -14 21 -20 36 -17 14 3 23 0 23 -8 0 -7 -5 -11 -11 -8 -6 3 0 -4 14 -15 14
-11 29 -21 33 -21 5 0 6 -4 2 -9 -3 -5 5 -13 17 -17 13 -4 26 -11 30 -17 4 -7
12 -6 23 3 16 13 16 15 -1 27 -10 7 -13 13 -7 13 7 0 14 -4 17 -9 3 -5 14 -7
24 -4 10 2 25 -3 32 -12 12 -14 12 -18 -1 -27 -11 -8 -11 -9 4 -4 19 6 67 -12
67 -26 0 -13 -18 -10 -23 5 -4 9 -6 9 -6 0 -1 -19 18 -26 34 -13 17 14 20 -1
4 -17 -8 -8 -8 -13 0 -17 6 -4 11 -12 11 -19 0 -6 -11 0 -24 14 -21 23 -32 26
-77 20 -4 -1 -10 -8 -13 -17 -3 -8 -2 -13 3 -10 10 7 23 -19 14 -28 -11 -11
-24 -6 -17 6 5 7 3 8 -5 3 -10 -5 -10 -10 -1 -19 9 -8 16 -5 31 13 10 12 16
27 13 32 -3 5 5 8 17 6 13 -2 25 -10 27 -17 3 -7 0 -10 -6 -6 -6 3 -24 -8 -42
-25 -17 -17 -24 -29 -15 -26 8 4 15 2 15 -2 0 -11 19 -9 39 3 11 7 13 5 8 -7
-3 -10 -2 -17 3 -17 6 0 10 7 10 15 0 8 5 15 10 15 6 0 10 -7 10 -15 0 -8 4
-15 10 -15 5 0 6 7 3 17 -5 12 -3 14 7 8 8 -5 11 -4 7 2 -4 6 0 13 8 17 18 6
19 2 4 -26 -8 -15 -8 -19 0 -13 7 4 18 2 25 -4 10 -9 15 -8 20 5 3 9 3 20 0
26 -4 6 -1 9 7 6 8 -3 14 -9 15 -14 0 -5 4 -17 9 -27 7 -17 8 -17 28 0 20 17
20 17 14 0 -4 -10 -3 -16 2 -12 5 3 12 -1 14 -7 4 -10 6 -10 6 0 1 6 5 12 11
12 5 0 7 -8 4 -17 -5 -15 -4 -15 4 -3 6 8 9 17 7 20 -2 4 8 7 24 7 17 0 28 -6
28 -14 0 -8 -7 -11 -14 -9 -8 3 -11 1 -8 -4 3 -5 16 -8 28 -6 24 4 24 26 1 39
-8 4 -14 13 -14 19 0 9 3 9 11 1 6 -6 18 -9 25 -6 10 3 12 0 8 -10 -3 -8 0
-18 5 -22 6 -3 9 -11 6 -16 -4 -5 -1 -9 4 -9 14 0 14 17 1 25 -5 3 -10 11 -10
17 0 6 8 4 18 -5 12 -11 22 -13 32 -7 21 14 27 12 27 -5 0 -9 -6 -14 -14 -11
-20 8 -15 -2 7 -14 25 -13 64 5 56 26 -6 17 10 19 20 2 4 -6 -3 -19 -16 -30
-12 -10 -18 -18 -12 -18 6 0 17 6 24 13 7 6 20 12 28 12 8 0 14 6 12 14 -2 8
3 11 12 8 15 -6 40 15 30 26 -3 3 -2 13 3 21 8 15 11 15 28 1 17 -12 17 -14 3
-9 -10 3 -18 2 -18 -3 0 -5 11 -9 24 -9 13 0 22 5 20 11 -3 6 4 11 15 12 14 1
18 -3 14 -15 -4 -15 -3 -15 6 -2 6 8 11 11 11 6 0 -6 5 -5 12 2 9 9 9 15 -1
25 -10 10 -11 8 -5 -8 7 -18 6 -18 -9 -6 -9 7 -14 18 -11 25 3 6 0 4 -8 -4 -7
-8 -21 -16 -31 -18 -15 -3 -17 0 -9 15 10 16 28 18 194 19 101 0 190 4 197 8
9 6 12 4 9 -5 -3 -8 -19 -14 -39 -14 -19 0 -40 -4 -47 -9 -7 -4 -19 -3 -26 3
-10 8 -18 5 -32 -12 l-19 -22 22 18 c12 11 24 14 27 9 3 -6 0 -12 -6 -15 -7
-3 1 -3 17 -2 17 2 30 4 30 5 0 1 15 3 33 5 25 2 32 -1 28 -12 -4 -8 -1 -11 5
-8 6 4 8 13 5 21 -3 7 -1 16 4 19 10 6 14 -9 11 -30 -1 -5 5 -3 15 7 16 16 11
44 -7 33 -5 -4 -9 -1 -9 4 0 10 20 15 48 12 6 -1 12 4 12 10 0 7 7 4 15 -7 14
-18 14 -18 8 4 -4 16 -1 22 11 22 10 0 27 5 39 12 35 19 44 18 40 -6 -4 -17 1
-22 18 -23 12 -1 29 6 36 15 8 9 12 12 9 5 -4 -7 1 -9 15 -6 21 6 21 7 3 21
-19 14 -19 15 0 8 12 -4 23 -1 28 6 14 22 9 31 -9 17 -16 -11 -16 -11 -5 1 7
8 17 15 23 15 5 0 9 4 9 8 -1 4 9 16 20 25 12 9 23 26 25 37 2 11 4 22 4 24 1
2 8 -2 16 -9 15 -13 11 -35 -6 -25 -16 11 -10 0 12 -18 20 -18 21 -18 13 5 -6
21 -6 22 11 8 18 -14 18 -14 0 13 -10 15 -14 27 -9 26 34 -6 43 1 34 27 -12
30 -12 35 -2 32 13 -4 53 23 47 32 -3 6 0 8 7 5 17 -6 93 47 93 65 0 8 5 18
10 22 6 5 3 8 -7 8 -9 0 -19 4 -22 9 -3 4 7 6 22 4 21 -4 24 -2 12 6 -9 7 -10
11 -3 11 6 0 12 8 12 18 1 17 7 72 10 82 3 13 38 7 38 -6 0 -9 -7 -13 -21 -9
-12 3 -15 2 -8 -1 6 -3 10 -10 7 -15 -4 -5 2 -6 12 -2 15 5 16 3 6 -8 -7 -7
-13 -18 -13 -23 0 -6 5 -3 11 7 6 9 14 15 19 12 5 -3 12 0 16 6 4 7 3 9 -4 5
-6 -3 -13 -2 -16 3 -4 5 -2 13 4 16 6 4 8 15 5 26 -4 10 -3 19 2 19 12 0 32
70 22 76 -5 3 -9 10 -9 15 0 6 4 8 9 5 7 -5 21 14 25 34 1 3 5 12 11 20 7 13
6 13 -8 2 -17 -15 -37 -9 -37 11 0 8 3 8 9 -1 10 -17 34 10 37 41 2 12 0 16
-2 9 -3 -6 -10 -10 -14 -7 -5 3 -7 -4 -5 -15 2 -11 0 -18 -5 -15 -9 6 -8 24 3
42 4 7 0 16 -10 22 -11 6 -13 11 -5 11 7 0 10 5 6 12 -4 7 -3 8 4 4 7 -4 12
-2 12 3 0 6 -4 11 -8 11 -5 0 -9 7 -9 15 0 11 4 12 14 4 15 -13 15 -13 18 18
1 12 -1 20 -6 17 -4 -2 -6 -12 -3 -22 4 -13 3 -14 -4 -4 -12 17 -3 64 11 55 5
-3 7 -1 4 4 -4 6 -1 16 7 22 11 9 15 8 20 -5 3 -9 3 -20 0 -26 -10 -15 17 -28
37 -17 13 7 21 4 32 -12 8 -11 18 -16 21 -11 3 6 -2 13 -12 17 -16 6 -16 7 1
20 18 13 17 14 -2 20 -25 8 -27 21 -5 29 23 9 24 8 18 -11 -5 -15 -4 -15 5 -3
7 11 6 19 -5 31 -8 9 -12 19 -7 21 4 3 1 3 -7 0 -8 -2 -22 -4 -30 -3 -8 1 -23
1 -33 2 -15 0 -16 3 -7 15 10 11 10 17 1 28 -10 12 -6 14 25 12 21 -1 40 -8
42 -15 3 -8 0 -11 -7 -7 -6 4 -11 1 -11 -6 0 -10 -3 -9 -10 2 -5 8 -12 11 -17
7 -12 -13 19 -27 38 -17 9 5 20 6 24 2 3 -4 5 0 3 8 -1 8 -11 21 -21 28 -9 7
-15 18 -11 23 3 6 12 3 20 -8 11 -13 14 -14 12 -3 -2 8 -12 20 -23 27 -15 9
-16 12 -5 13 11 1 10 4 -5 13 -11 7 -21 20 -21 30 -2 19 4 21 26 7 13 -9 13
-10 0 -10 -13 0 -13 -1 0 -10 17 -11 41 -14 24 -2 -6 4 -10 22 -10 40 1 27 -5
36 -29 50 -16 9 -32 18 -34 19 -2 2 2 11 10 20 13 16 12 17 -4 4 -10 -8 -16
-20 -13 -28 9 -21 -4 -42 -22 -36 -14 4 -14 3 -3 -5 11 -8 10 -14 -8 -33 -18
-20 -19 -24 -6 -32 8 -4 20 -5 26 -1 7 4 10 1 7 -7 -3 -8 -10 -15 -16 -15 -24
-3 -26 -4 -14 -16 10 -10 16 -7 28 10 8 12 20 22 26 22 6 0 3 -9 -6 -19 -10
-11 -15 -25 -11 -30 4 -7 -2 -9 -17 -7 -13 3 -26 5 -30 5 -3 1 -5 12 -3 26 1
14 -2 28 -7 31 -5 3 -4 12 3 20 6 8 8 14 4 14 -4 0 -3 6 2 13 6 6 9 20 8 29
-2 11 2 15 11 11 8 -3 14 0 14 6 0 6 -3 10 -7 10 -24 -4 -43 2 -38 12 4 6 13
8 21 5 8 -3 25 6 38 19 19 19 21 25 9 25 -13 0 -14 2 -2 17 12 14 12 15 0 9
-10 -6 -12 -4 -7 10 4 13 -1 23 -14 32 -19 12 -25 7 -22 -19 1 -4 -9 -15 -21
-25 -17 -15 -19 -16 -8 -2 14 19 24 141 11 133 -5 -3 -12 -1 -15 5 -4 6 -1 9
6 8 6 -2 14 3 16 10 3 8 -2 10 -14 6 -13 -4 -14 -3 -5 4 9 6 12 21 9 41 -3 19
0 37 9 45 11 12 11 15 -2 20 -8 3 -12 2 -9 -3 3 -5 2 -12 -3 -14 -4 -3 -12 5
-19 19 -10 21 -9 23 10 21 13 -1 22 4 23 13 0 8 -1 9 -3 3 -3 -7 -9 -13 -14
-13 -12 0 -11 24 2 37 7 7 2 17 -19 31 -16 12 -32 18 -36 15 -4 -4 -4 1 0 11
4 11 1 22 -7 28 -10 7 -7 8 11 3 l25 -6 -23 14 c-12 7 -20 16 -16 19 3 4 16 1
28 -7 21 -14 22 -13 22 18 -1 39 -38 76 -60 58 -7 -6 -16 -8 -19 -4 -4 3 -7 1
-7 -5 0 -7 5 -13 10 -13 6 -1 14 -2 19 -3 26 -3 20 -16 -7 -16 -18 0 -31 3
-30 8 5 18 -15 92 -25 92 -5 0 -8 3 -4 6 7 7 -36 97 -63 131 -10 12 -21 19
-25 15 -4 -4 -2 4 5 18 9 18 10 25 1 28 -6 2 -8 9 -5 14 4 6 2 8 -4 4 -6 -3
-14 -1 -18 5 -3 6 -2 14 4 18 5 3 9 17 8 31 -1 18 -6 24 -20 22 -10 -2 -15 1
-12 7 13 21 -13 20 -28 -1 -15 -21 -21 -18 -16 7 1 6 -9 0 -23 -13 -16 -15
-30 -20 -42 -16 -13 5 -16 4 -11 -4 4 -7 14 -12 22 -12 9 0 12 -5 8 -12 -4 -7
-3 -8 4 -4 7 4 12 2 12 -3 0 -18 -20 -12 -45 13 -13 13 -30 26 -37 29 -7 2 -9
8 -5 13 4 5 12 2 16 -5 6 -10 10 -10 16 -2 3 7 15 9 25 6 10 -3 21 -2 24 3 3
5 -9 8 -27 7 -21 -2 -41 5 -57 19 -14 11 -19 14 -12 6 14 -16 16 -30 4 -30 -5
0 -16 16 -25 36 -14 28 -20 34 -31 25 -16 -13 -49 -4 -40 11 4 6 9 6 14 -2 5
-8 9 -8 13 3 4 12 1 14 -16 10 -34 -8 -61 -5 -65 7 -2 5 -12 10 -22 10 -10 0
-21 4 -25 10 -3 5 -13 7 -23 4 -14 -5 -14 -4 -3 4 10 7 21 7 33 1 10 -5 18 -7
18 -4 0 3 11 -2 25 -11 24 -15 25 -15 19 0 -4 9 -9 14 -12 12 -3 -3 -11 -1
-19 5 -7 6 -13 8 -13 3 0 -4 -10 1 -22 12 -26 23 -59 26 -66 5 -3 -9 0 -11 8
-6 9 5 11 4 6 -4 -4 -6 -12 -9 -17 -6 -12 8 -11 35 2 35 5 0 7 5 3 12 -5 7 -3
8 6 3 9 -5 11 -4 6 4 -4 6 -3 17 3 24 7 10 3 13 -17 15 -21 1 -24 0 -12 -8 10
-6 11 -10 3 -10 -7 0 -18 9 -25 20 -17 26 -23 25 -24 -4 -1 -19 2 -23 15 -19
13 4 14 3 1 -5 -16 -12 -33 -5 -27 11 6 17 -11 47 -26 47 -7 0 -8 -3 -2 -8 6
-4 11 -16 12 -27 1 -11 0 -14 -3 -7 -3 6 -11 9 -16 6 -7 -4 -8 -2 -4 4 4 7 2
12 -4 12 -6 0 -8 5 -5 10 3 6 4 10 1 10 -3 0 -7 -3 -7 -7z m-172 -47 c3 -2 0
-13 -7 -23 -10 -15 -11 -16 -6 -1 6 20 -9 34 -19 18 -4 -6 -11 -8 -16 -5 -5 4
-9 1 -9 -6 0 -7 -3 -9 -6 -6 -12 12 17 36 38 32 11 -3 23 -6 25 -9z m203 -16
c0 -6 -9 -2 -20 7 -11 10 -20 19 -20 21 0 1 9 -2 20 -8 11 -6 20 -15 20 -20z
m-310 16 c0 -3 -4 -8 -10 -11 -5 -3 -10 -1 -10 4 0 6 5 11 10 11 6 0 10 -2 10
-4z m210 -6 c0 -5 -4 -10 -10 -10 -5 0 -10 5 -10 10 0 6 5 10 10 10 6 0 10 -4
10 -10z m55 0 c3 -5 1 -10 -4 -10 -6 0 -11 5 -11 10 0 6 2 10 4 10 3 0 8 -4
11 -10z m120 -10 c-3 -5 -12 -10 -18 -10 -7 0 -6 4 3 10 19 12 23 12 15 0z
m-645 -25 c-7 -8 -16 -15 -21 -15 -5 0 -1 8 9 18 20 22 31 19 12 -3z m202 3
c-7 -7 -12 -8 -12 -2 0 6 3 14 7 17 3 4 9 5 12 2 2 -3 -1 -11 -7 -17z m88 12
c0 -5 -4 -10 -10 -10 -5 0 -10 5 -10 10 0 6 5 10 10 10 6 0 10 -4 10 -10z
m200 0 c0 -5 -8 -10 -17 -10 -15 0 -16 2 -3 10 19 12 20 12 20 0z m-327 -15
c4 -8 3 -16 -1 -19 -4 -3 -9 4 -9 15 -2 23 3 25 10 4z m101 -1 c3 -8 2 -12 -4
-9 -6 3 -10 10 -10 16 0 14 7 11 14 -7z m80 0 c3 -8 2 -12 -4 -9 -6 3 -10 10
-10 16 0 14 7 11 14 -7z m59 1 c4 -8 3 -16 -1 -19 -4 -3 -9 4 -9 15 -2 23 3
25 10 4z m47 -6 c0 -6 -4 -7 -10 -4 -5 3 -10 11 -10 16 0 6 5 7 10 4 6 -3 10
-11 10 -16z m75 -8 c-6 -5 -25 10 -25 20 0 5 6 4 14 -3 8 -7 12 -15 11 -17z
m-617 -2 c3 -11 2 -12 -6 0 -6 9 -12 10 -16 3 -4 -6 -14 -8 -23 -5 -11 4 -14
2 -9 -5 7 -12 -32 -8 -43 4 -3 4 2 4 11 1 10 -3 20 -2 23 3 3 4 -1 10 -7 13
-7 2 5 3 26 2 25 -1 41 -7 44 -16z m30 -4 c-3 -3 -9 2 -12 12 -6 14 -5 15 5 6
7 -7 10 -15 7 -18z m120 4 c3 -11 2 -11 -7 1 -10 13 -12 13 -21 0 -5 -8 -10
-10 -10 -4 0 27 31 30 38 3z m79 8 c2 -3 -8 -4 -22 -4 -14 0 -25 3 -25 8 0 7
38 4 47 -4z m107 -2 c3 -8 1 -15 -4 -15 -6 0 -10 7 -10 15 0 8 2 15 4 15 2 0
6 -7 10 -15z m80 0 c3 -8 1 -15 -4 -15 -6 0 -10 7 -10 15 0 8 2 15 4 15 2 0 6
-7 10 -15z m306 0 c0 -8 -2 -15 -4 -15 -2 0 -6 7 -10 15 -3 8 -1 15 4 15 6 0
10 -7 10 -15z m-143 -11 c-3 -3 -12 -4 -19 -1 -8 3 -5 6 6 6 11 1 17 -2 13 -5z
m-790 -46 c2 -17 0 -19 -7 -8 -5 8 -6 18 -4 22 8 12 10 10 11 -14z m-27 -18
c0 -5 -5 -10 -11 -10 -5 0 -7 5 -4 10 3 6 8 10 11 10 2 0 4 -4 4 -10z m1220
-43 c0 -5 -4 -5 -10 -2 -5 3 -10 14 -10 23 0 15 2 15 10 2 5 -8 10 -19 10 -23z
m-1517 -4 c-5 -12 -3 -14 7 -8 9 6 11 4 5 -4 -5 -9 -11 -9 -17 -3 -6 6 -7 15
-4 21 11 17 16 13 9 -6z m227 13 c0 -3 -4 -8 -10 -11 -5 -3 -10 -1 -10 4 0 6
5 11 10 11 6 0 10 -2 10 -4z m-133 -33 c-8 -7 -37 9 -31 19 3 5 12 4 20 -3 8
-6 13 -14 11 -16z m1621 -5 c-2 -7 5 -12 14 -12 18 2 20 -19 4 -44 -5 -9 0
-22 15 -38 19 -20 20 -24 6 -24 -9 0 -16 6 -14 13 1 6 -4 11 -10 10 -7 -2 -12
3 -10 10 1 6 -4 11 -11 9 -8 -1 -11 2 -7 8 3 5 -1 10 -9 10 -20 0 -20 4 -1 40
16 31 27 39 23 18z m-1573 -8 c3 -6 -1 -7 -9 -4 -18 7 -21 14 -7 14 6 0 13 -4
16 -10z m-27 -9 c11 -7 10 -9 -3 -14 -9 -4 -14 -3 -10 2 3 5 -1 12 -7 14 -7 3
-8 6 -3 6 6 0 16 -3 23 -8z m1558 -20 c-4 -5 -13 -8 -22 -4 -11 4 -12 8 -3 20
14 16 36 2 25 -16z m-1639 4 c0 -8 -4 -12 -9 -9 -5 3 -6 10 -3 15 9 13 12 11
12 -6z m-43 -10 c-4 -8 -11 -12 -16 -9 -6 4 -5 10 3 15 19 12 19 11 13 -6z
m91 -5 c-3 -5 -13 -10 -21 -10 -8 0 -12 5 -9 10 3 6 13 10 21 10 8 0 12 -4 9
-10z m-155 -42 c0 -11 -22 -10 -39 1 -10 7 -7 9 12 8 15 -1 27 -5 27 -9z m-60
-48 c-12 -23 -16 -24 -26 -8 -4 6 -3 8 3 5 6 -4 13 0 17 8 3 8 8 15 11 15 3 0
1 -9 -5 -20z m44 3 c4 -10 1 -20 -9 -25 -8 -5 -13 -13 -10 -18 3 -5 0 -12 -7
-16 -7 -4 -10 -4 -6 1 4 4 3 14 -3 22 -9 9 -8 13 0 13 6 0 10 3 10 8 -5 32 14
44 25 15z m-74 -33 c0 -5 -7 -7 -15 -4 -8 4 -15 8 -15 10 0 2 7 4 15 4 8 0 15
-4 15 -10z m1940 0 c0 -5 -2 -10 -4 -10 -3 0 -8 5 -11 10 -3 6 -1 10 4 10 6 0
11 -4 11 -10z m-1954 -22 c5 -7 3 -8 -6 -3 -10 6 -12 3 -8 -13 4 -12 3 -24 -1
-27 -8 -5 -12 22 -5 43 4 15 11 15 20 0z m43 -11 c0 -9 -2 -8 -6 1 -2 6 -10 9
-15 6 -7 -4 -8 -2 -4 5 9 13 26 5 25 -12z m46 -6 c3 -5 2 -12 -3 -15 -5 -3 -9
1 -9 9 0 17 3 19 12 6z m-15 -46 c0 -5 -5 -3 -10 5 -5 8 -10 20 -10 25 0 6 5
3 10 -5 5 -8 10 -19 10 -25z m1915 25 c3 -5 1 -10 -4 -10 -6 0 -11 5 -11 10 0
6 2 10 4 10 3 0 8 -4 11 -10z m-1982 -20 c-3 -12 -8 -19 -11 -16 -5 6 5 36 12
36 2 0 2 -9 -1 -20z m2020 -75 c-3 -9 -8 -14 -10 -11 -3 3 -2 9 2 15 9 16 15
13 8 -4z m103 -60 c8 -13 13 -29 9 -35 -9 -14 -28 -1 -21 15 6 16 -17 38 -29
27 -5 -4 -5 -1 -1 6 11 18 24 15 42 -13z m-2071 5 c-3 -5 -12 -10 -18 -10 -7
0 -6 4 3 10 19 12 23 12 15 0z m2090 -143 c12 -10 14 -16 7 -21 -16 -10 -34 2
-26 16 5 8 1 9 -10 5 -10 -4 -15 -3 -11 3 8 13 18 13 40 -3z m-7 -43 c1 0 -10
-6 -25 -13 -26 -10 -27 -10 -9 4 18 14 15 20 -7 16 -5 -1 -6 3 -2 9 5 8 12 7
23 -2 10 -7 18 -13 20 -14z m-7 -41 c13 -16 12 -17 -3 -4 -10 7 -18 15 -18 17
0 8 8 3 21 -13z m-2206 -11 c-3 -3 -11 0 -18 7 -9 10 -8 11 6 5 10 -3 15 -9
12 -12z m2179 10 c3 -5 -1 -9 -9 -9 -8 0 -12 4 -9 9 3 4 7 8 9 8 2 0 6 -4 9
-8z m-2194 -42 c0 -5 -2 -10 -4 -10 -3 0 -8 5 -11 10 -3 6 -1 10 4 10 6 0 11
-4 11 -10z m-3 -42 c-3 -8 -6 -5 -6 6 -1 11 2 17 5 13 3 -3 4 -12 1 -19z m-26
5 c-11 -4 -11 -7 0 -14 7 -4 10 -11 6 -16 -9 -9 -28 17 -21 29 3 4 11 8 17 7
8 0 7 -3 -2 -6z m-71 -43 c0 -5 -4 -10 -10 -10 -5 0 -10 5 -10 10 0 6 5 10 10
10 6 0 10 -4 10 -10z m120 -4 c0 -2 -8 -10 -17 -17 -16 -13 -17 -12 -4 4 13
16 21 21 21 13z m-40 -16 c0 -5 -4 -10 -10 -10 -5 0 -10 5 -10 10 0 6 5 10 10
10 6 0 10 -4 10 -10z m2280 -61 c0 -5 -4 -9 -8 -9 -5 0 -9 7 -9 15 0 8 4 12 9
9 4 -3 8 -9 8 -15z m-2297 -4 c-3 -9 -8 -14 -10 -11 -3 3 -2 9 2 15 9 16 15
13 8 -4z m41 -13 c3 -5 -1 -9 -9 -9 -8 0 -12 4 -9 9 3 4 7 8 9 8 2 0 6 -4 9
-8z m-94 -36 c0 5 5 1 11 -9 6 -9 15 -14 21 -11 6 4 8 3 5 -4 -13 -20 -50 -4
-68 31 -12 22 -12 22 10 3 11 -11 21 -15 21 -10z m2393 17 c4 -3 2 -12 -4 -20
-6 -7 -7 -13 -2 -13 12 0 13 -32 1 -47 -13 -16 -38 -5 -38 16 0 9 7 25 15 35
8 10 12 23 9 27 -6 10 10 12 19 2z m-68 -52 c3 -5 2 -12 -3 -15 -5 -3 -9 1 -9
9 0 17 3 19 12 6z m-2271 -49 c3 -5 -1 -9 -9 -9 -8 0 -12 4 -9 9 3 4 7 8 9 8
2 0 6 -4 9 -8z m36 -22 c0 -5 -5 -10 -11 -10 -5 0 -7 5 -4 10 3 6 8 10 11 10
2 0 4 -4 4 -10z m2364 -15 c13 -10 16 -19 10 -32 -7 -16 -8 -16 -11 4 -2 12
-11 24 -20 27 -13 5 -14 4 -4 -8 15 -18 5 -40 -14 -32 -8 3 -17 -4 -20 -15 -4
-10 -11 -19 -17 -19 -11 0 -10 3 21 53 26 41 28 42 55 22z m-104 -19 c0 -2 -7
-7 -16 -10 -8 -3 -12 -2 -9 4 6 10 25 14 25 6z m80 -46 c0 -5 -7 -10 -15 -10
-8 0 -15 5 -15 10 0 6 7 10 15 10 8 0 15 -4 15 -10z m-2344 -56 c1 -9 0 -13
-4 -10 -3 4 -7 14 -8 22 -1 9 0 13 4 10 3 -4 7 -14 8 -22z m2360 -2 c0 -19 -5
-28 -16 -28 -19 0 -23 24 -7 44 15 19 23 14 23 -16z m-116 -22 c0 -5 -2 -10
-4 -10 -3 0 -8 5 -11 10 -3 6 -1 10 4 10 6 0 11 -4 11 -10z m55 -9 c-3 -2 0
-10 6 -17 12 -14 3 -38 -11 -29 -5 3 -11 1 -15 -5 -3 -5 0 -11 7 -11 7 -1 24
-3 38 -6 14 -2 33 -4 43 -4 9 0 17 -5 17 -10 0 -6 -4 -8 -9 -5 -12 8 -22 -20
-15 -39 4 -8 11 -12 18 -8 6 3 7 2 3 -2 -4 -5 -13 -10 -20 -11 -7 -1 -19 -3
-27 -5 -8 -2 -14 2 -12 9 1 7 -3 22 -9 33 -10 19 -12 20 -29 4 -17 -15 -18
-14 -15 27 4 62 3 62 23 47 15 -13 16 -12 3 4 -8 10 -20 16 -27 13 -7 -3 -11
0 -8 7 2 7 13 13 24 13 10 0 17 -2 15 -5z m-2298 -16 c0 -8 -4 -12 -9 -9 -5 3
-6 10 -3 15 9 13 12 11 12 -6z m-130 -43 c-24 -23 -27 -24 -27 -8 0 11 3 16 7
13 3 -4 13 2 21 14 8 11 17 18 20 14 3 -3 -6 -18 -21 -33z m88 19 c3 -5 2 -12
-3 -15 -5 -3 -9 1 -9 9 0 17 3 19 12 6z m2265 -11 c0 -5 -2 -10 -4 -10 -3 0
-8 5 -11 10 -3 6 -1 10 4 10 6 0 11 -4 11 -10z m-2285 -31 c-4 -5 -12 -9 -18
-8 -9 0 -8 2 1 6 6 2 9 10 6 15 -4 7 -2 8 5 4 6 -4 9 -12 6 -17z m28 1 c-10
-11 -19 -20 -21 -20 -1 0 2 9 8 20 6 11 15 20 20 20 6 0 2 -9 -7 -20z m-65
-19 c0 -18 -5 -32 -15 -35 -8 -4 -13 -13 -9 -21 3 -8 2 -15 -3 -15 -19 0 -19
15 -1 40 11 15 17 30 14 33 -5 5 3 27 10 27 2 0 3 -13 4 -29z m82 -11 c0 -5
-4 -10 -10 -10 -5 0 -10 5 -10 10 0 6 5 10 10 10 6 0 10 -4 10 -10z m-17 -30
c9 -11 13 -20 7 -20 -5 0 -14 9 -20 20 -6 11 -9 20 -8 20 2 0 11 -9 21 -20z
m-28 1 c3 -5 0 -13 -6 -17 -7 -4 -9 -3 -5 4 3 5 0 13 -6 15 -9 4 -10 6 -1 6 6
1 14 -3 18 -8z m-28 -19 c14 -24 -14 -66 -36 -53 -11 7 -9 13 8 30 11 11 17
21 11 21 -5 0 -10 5 -10 10 0 16 14 12 27 -8z m129 5 c4 -3 -4 -4 -16 -2 -30
6 -40 16 -12 12 12 -2 24 -6 28 -10z m-78 -32 c-3 -3 -9 2 -12 12 -6 14 -5 15
5 6 7 -7 10 -15 7 -18z m-6 -19 c7 4 8 2 4 -5 -10 -15 -26 -4 -25 17 1 15 2
15 6 -1 2 -9 9 -14 15 -11z m63 14 c4 -6 -1 -7 -11 -3 -11 4 -15 3 -10 -5 3
-6 1 -14 -5 -18 -8 -4 -9 -3 -5 4 4 7 1 12 -6 12 -9 0 -9 3 2 10 19 12 27 12
35 0z m7 -45 c-8 -16 -9 -16 -15 -1 -4 10 -3 15 3 11 6 -3 10 -1 10 6 0 7 3
10 6 6 3 -3 2 -13 -4 -22z m-51 -22 c-11 -16 -11 -16 -6 4 5 19 3 22 -12 17
-15 -5 -15 -4 -3 5 21 14 35 -3 21 -26z m-22 -28 c1 6 5 4 10 -4 10 -15 49
-23 66 -13 5 4 -1 9 -15 13 -23 6 -23 7 -3 8 30 1 37 -15 13 -32 -11 -7 -17
-17 -13 -20 3 -4 13 -1 21 6 13 10 15 9 9 -5 -3 -9 1 -22 9 -29 12 -9 12 -15
2 -27 -11 -13 -10 -15 6 -9 16 6 17 5 6 -8 -10 -12 -10 -15 2 -15 10 0 15 -8
14 -22 -1 -13 2 -28 6 -35 5 -6 5 -14 1 -16 -5 -3 -16 8 -25 24 -10 16 -13 29
-8 29 6 0 10 -5 10 -12 0 -6 2 -9 5 -6 4 3 -6 23 -20 44 -14 21 -23 44 -20 52
5 13 3 13 -11 1 -14 -11 -15 -10 -12 7 2 15 -2 18 -19 17 -13 -2 -23 2 -23 7
0 6 -9 19 -21 31 -13 13 -18 26 -13 37 6 14 8 13 14 -8 5 -14 9 -20 9 -15z
m2266 -184 c3 -5 2 -12 -3 -15 -5 -3 -9 1 -9 9 0 17 3 19 12 6z m-35 -15 c0
-3 -4 -8 -10 -11 -5 -3 -10 -1 -10 4 0 6 5 11 10 11 6 0 10 -2 10 -4z m-2011
-110 c9 -11 9 -16 -1 -22 -7 -4 -10 -4 -6 1 4 4 3 14 -3 22 -6 7 -9 13 -6 13
2 0 10 -6 16 -14z m1862 -49 c-10 -9 -11 -8 -5 6 3 10 9 15 12 12 3 -3 0 -11
-7 -18z m-1854 -2 c0 -8 -4 -12 -9 -9 -5 3 -6 10 -3 15 9 13 12 11 12 -6z
m1938 -45 c4 -6 1 -9 -7 -8 -7 2 -12 -3 -10 -9 1 -7 -2 -13 -8 -13 -14 0 -13
13 2 28 15 15 15 15 23 2z m-1938 -15 c0 -8 -4 -12 -9 -9 -4 3 -8 9 -8 15 0 5
4 9 8 9 5 0 9 -7 9 -15z m1843 -5 c0 -5 -5 -10 -11 -10 -5 0 -7 5 -4 10 3 6 8
10 11 10 2 0 4 -4 4 -10z m-1790 -34 c0 -3 -4 -8 -10 -11 -5 -3 -10 -1 -10 4
0 6 5 11 10 11 6 0 10 -2 10 -4z m85 -66 c3 -5 1 -10 -4 -10 -6 0 -11 5 -11
10 0 6 2 10 4 10 3 0 8 -4 11 -10z m1648 -15 c-8 -22 -22 -18 -16 5 3 11 9 17
14 15 4 -3 6 -12 2 -20z m-1608 -53 c-3 -3 -11 0 -18 7 -9 10 -8 11 6 5 10 -3
15 -9 12 -12z m29 -17 c-4 -8 -11 -12 -16 -9 -6 4 -5 10 3 15 19 12 19 11 13
-6z m1388 -111 c-9 -16 -10 -14 -9 8 1 15 6 23 11 18 4 -4 4 -16 -2 -26z
m-1177 -13 c-3 -11 -1 -22 5 -26 6 -3 7 -11 4 -17 -4 -7 -2 -8 4 -4 7 4 12 2
12 -3 0 -6 -7 -11 -15 -11 -8 0 -15 -4 -15 -8 0 -4 -9 -8 -20 -8 -11 0 -19 5
-16 11 2 7 -2 12 -9 12 -7 0 -11 -6 -8 -13 6 -16 -9 -25 -25 -15 -10 6 -9 11
4 21 20 18 45 22 59 10 7 -6 11 -2 12 10 1 11 -3 22 -8 26 -6 4 -6 11 2 20 16
19 21 18 14 -5z m45 -13 c0 -6 -8 -7 -17 -4 -15 5 -14 3 2 -10 11 -8 19 -20
17 -25 -1 -6 2 -8 8 -4 8 5 7 11 -1 21 -9 11 -9 14 0 14 7 0 9 4 6 10 -3 5 9
3 27 -4 18 -7 41 -12 51 -11 9 2 15 0 13 -3 -2 -4 85 -7 195 -6 157 0 199 -3
199 -13 0 -17 -20 -17 -20 0 -1 6 -8 -1 -16 -16 -14 -26 -34 -29 -34 -6 0 6 4
8 9 4 5 -3 13 0 17 6 4 8 3 9 -4 5 -7 -4 -12 -1 -13 6 0 10 -2 10 -6 1 -2 -7
-9 -13 -14 -13 -6 0 -8 4 -5 8 3 5 -1 9 -9 9 -8 0 -14 -3 -13 -6 2 -19 -4 -28
-17 -28 -8 0 -15 4 -15 9 0 4 5 8 10 8 6 0 10 5 10 11 0 8 -5 7 -15 -1 -16
-13 -16 -33 -1 -30 5 1 13 -4 17 -12 7 -10 9 -10 9 0 0 7 5 10 10 7 6 -4 7
-11 4 -17 -4 -7 -2 -8 5 -4 9 6 9 11 0 22 -6 8 -9 17 -6 20 3 3 12 -3 19 -15
7 -12 19 -21 27 -21 8 0 11 -3 7 -7 -4 -4 -15 -8 -24 -8 -9 0 -16 -6 -14 -12
1 -7 -2 -13 -8 -13 -5 0 -10 6 -10 13 0 17 -68 48 -77 34 -3 -6 -1 -7 5 -3 6
3 16 -3 23 -15 9 -17 8 -23 -2 -30 -8 -5 -18 -8 -24 -8 -5 0 -4 3 4 6 11 5 11
7 0 15 -10 7 -9 8 6 3 16 -5 17 -4 8 6 -15 15 -56 19 -64 7 -3 -5 -14 1 -25
13 -10 13 -13 19 -7 15 17 -10 57 -17 49 -9 -12 12 -52 18 -76 12 -8 -2 -15 3
-15 11 0 10 9 14 25 13 45 -4 64 -10 68 -21 5 -16 42 9 41 28 0 11 -2 11 -6 2
-4 -10 -8 -10 -21 0 -15 12 -16 11 -3 -4 15 -20 2 -25 -17 -6 -20 20 -123 17
-154 -4 -16 -11 -32 -17 -36 -14 -5 3 -18 -1 -28 -9 -18 -15 -18 -15 1 -9 16
6 18 4 8 -6 -12 -13 -37 -5 -28 10 3 5 1 11 -5 15 -5 3 -10 11 -10 17 0 7 4 7
13 0 8 -7 18 -7 27 -2 8 5 18 6 22 4 4 -3 16 -1 25 5 14 8 10 9 -17 6 -19 -2
-40 1 -46 6 -9 8 -18 5 -31 -10 -9 -12 -20 -21 -23 -21 -12 0 -51 61 -45 70 7
11 35 2 35 -12z m-143 -3 c0 -8 -4 -12 -9 -9 -5 3 -6 10 -3 15 9 13 12 11 12
-6z m329 -67 c-6 -15 -14 -28 -18 -28 -10 0 -10 27 0 33 4 2 1 2 -5 1 -7 -2
-13 0 -13 5 0 13 11 20 29 18 15 -1 16 -5 7 -29z m-36 -8 c0 -5 -8 -14 -18
-19 -14 -7 -21 -5 -30 9 -9 16 -9 18 2 14 8 -3 17 0 21 5 7 12 25 5 25 -9z
m-130 0 c0 -5 -4 -10 -9 -10 -6 0 -13 5 -16 10 -3 6 1 10 9 10 9 0 16 -4 16
-10z"/>
<path d="M2153 2294 c0 -7 4 -11 8 -8 4 2 9 -1 11 -8 3 -7 7 -8 11 -2 3 5 -2
15 -12 21 -14 9 -18 8 -18 -3z"/>
<path d="M2464 1429 c-3 -6 -2 -15 4 -21 6 -6 12 -6 17 3 6 8 4 10 -5 4 -10
-6 -12 -4 -7 8 7 19 2 23 -9 6z"/>
<path d="M2465 1110 c-3 -6 1 -7 9 -4 18 7 21 14 7 14 -6 0 -13 -4 -16 -10z"/>
<path d="M2505 1110 c-3 -5 -1 -18 5 -27 9 -15 10 -14 4 7 -6 23 -6 24 12 10
18 -14 18 -14 5 3 -16 20 -18 20 -26 7z"/>
<path d="M2519 1053 c-13 -16 -12 -17 4 -4 16 13 21 21 13 21 -2 0 -10 -8 -17
-17z"/>
<path d="M156 868 c3 -4 11 -5 19 -1 21 7 19 12 -4 10 -11 0 -18 -5 -15 -9z"/>
<path d="M840 2481 c0 -6 4 -13 10 -16 6 -3 7 1 4 9 -7 18 -14 21 -14 7z"/>
<path d="M790 2460 c0 -5 5 -10 11 -10 5 0 7 5 4 10 -3 6 -8 10 -11 10 -2 0
-4 -4 -4 -10z"/>
<path d="M580 2399 c-14 -11 -19 -18 -12 -14 7 4 22 -1 33 -11 19 -17 20 -17
13 1 -5 12 -4 16 4 11 6 -3 14 -1 18 6 4 7 4 10 -1 6 -4 -4 -13 -1 -19 7 -9
12 -15 11 -36 -6z m30 1 c0 -5 -5 -10 -11 -10 -5 0 -7 5 -4 10 3 6 8 10 11 10
2 0 4 -4 4 -10z"/>
<path d="M2220 2300 c0 -5 5 -10 11 -10 5 0 7 5 4 10 -3 6 -8 10 -11 10 -2 0
-4 -4 -4 -10z"/>
<path d="M2420 1989 c0 -5 -4 -7 -10 -4 -14 9 -12 -1 3 -13 10 -8 13 -6 14 9
1 10 0 19 -3 19 -2 0 -4 -5 -4 -11z"/>
<path d="M184 1799 c-3 -6 -1 -16 5 -22 9 -9 10 -7 5 7 -6 15 -4 17 6 11 9 -5
11 -4 6 3 -9 15 -13 15 -22 1z"/>
<path d="M2465 1692 c-13 -9 -19 -35 -6 -28 5 4 12 2 16 -4 3 -5 2 -10 -4 -10
-10 0 -9 -25 1 -36 4 -3 4 -12 2 -19 -3 -7 2 -15 10 -18 9 -4 16 -2 16 3 0 6
-4 10 -8 10 -5 0 -8 15 -7 33 0 17 -3 37 -8 44 -5 7 -6 17 -2 23 7 12 4 13
-10 2z"/>
<path d="M110 1561 c0 -5 7 -11 15 -15 8 -3 15 -1 15 3 0 5 -7 11 -15 15 -8 3
-15 1 -15 -3z"/>
<path d="M2470 1561 c0 -6 5 -11 10 -11 6 0 10 -5 10 -11 0 -5 -4 -7 -10 -4
-5 3 -10 2 -10 -2 0 -11 41 -36 48 -29 3 3 0 6 -5 6 -6 0 -10 11 -8 25 1 14 0
23 -3 20 -3 -2 -11 0 -19 6 -9 9 -13 8 -13 0z"/>
<path d="M2551 1383 c-1 -17 16 -25 25 -12 4 7 3 9 -4 5 -5 -3 -13 0 -15 6 -4
9 -6 10 -6 1z"/>
<path d="M70 1348 c0 -5 -5 -6 -11 -3 -6 4 -5 -2 3 -14 14 -23 24 -26 33 -11
4 6 3 10 -2 9 -21 -4 -25 2 -9 14 16 12 16 14 2 14 -9 0 -16 -4 -16 -9z"/>
<path d="M70 1288 c0 -4 4 -8 9 -8 6 0 12 4 15 8 3 5 -1 9 -9 9 -8 0 -15 -4
-15 -9z"/>
<path d="M2533 1013 c-7 -3 -13 -9 -13 -15 0 -7 5 -6 14 1 11 9 15 9 19 -1 4
-9 6 -9 6 -1 1 15 -10 22 -26 16z"/>
<path d="M2493 995 c0 -8 4 -12 9 -9 4 3 8 9 8 15 0 5 -4 9 -8 9 -5 0 -9 -7
-9 -15z"/>
<path d="M87 956 c-10 -8 -14 -16 -10 -19 5 -3 14 3 21 14 14 22 13 23 -11 5z"/>
<path d="M2453 951 c-9 -15 -9 -20 0 -24 7 -3 13 5 13 19 2 29 2 29 -13 5z"/>
<path d="M2187 387 c-3 -8 -2 -20 3 -26 5 -9 8 -4 8 13 0 29 -3 32 -11 13z"/>
<path d="M2180 331 c-8 -6 -18 -7 -22 -5 -4 3 -8 3 -8 0 0 -3 10 -11 23 -17
12 -6 19 -8 15 -4 -4 5 -3 14 3 22 13 15 10 16 -11 4z"/>
<path d="M2080 275 c-9 -10 -9 -15 -1 -15 6 0 11 5 11 11 0 8 6 7 18 -2 15
-13 16 -12 3 4 -16 21 -16 21 -31 2z"/>
<path d="M621 202 c-6 -12 -15 -21 -19 -19 -4 1 -8 -2 -10 -7 -1 -6 4 -11 13
-12 8 -1 13 2 9 7 -7 12 9 12 24 -1 9 -7 9 -7 2 2 -5 7 -10 19 -10 27 0 12 2
12 13 -2 8 -12 16 -14 27 -7 8 5 11 13 6 17 -5 4 -11 2 -13 -5 -4 -10 -8 -9
-18 4 -12 16 -13 16 -24 -4z"/>
<path d="M690 200 c0 -5 5 -10 10 -10 6 0 10 5 10 10 0 6 -4 10 -10 10 -5 0
-10 -4 -10 -10z"/>
<path d="M1787 139 c7 -9 9 -20 5 -25 -4 -4 1 -2 11 5 9 7 17 16 17 19 0 3 -3
2 -7 -1 -3 -4 -13 -1 -22 6 -14 10 -14 10 -4 -4z"/>
<path d="M1430 110 c5 -10 8 -19 7 -21 -1 -2 0 -3 2 -1 12 7 9 39 -4 39 -10 0
-11 -5 -5 -17z"/>
<path d="M1463 106 c-1 -12 1 -16 4 -9 2 6 16 10 31 8 15 -2 21 -2 14 1 -6 3
-10 9 -8 13 3 4 -5 7 -18 7 -15 0 -22 -6 -23 -20z"/>
<path d="M1520 124 c0 -1 10 -9 23 -17 22 -14 24 -14 36 6 11 18 11 20 0 10
-14 -14 -33 -18 -25 -5 2 4 -4 8 -15 8 -10 0 -19 -1 -19 -2z"/>
</g>
</svg>
